<svg width="158" height="111" viewBox="0 0 158 111" fill="none" xmlns="http://www.w3.org/2000/svg">
<path d="M78.4716 9.76007L91.1316 9.82007C91.3679 9.82139 91.6023 9.77614 91.8212 9.68689C92.0401 9.59765 92.2392 9.46616 92.4073 9.29994C92.5754 9.13373 92.7091 8.93603 92.8007 8.71814C92.8924 8.50026 92.9402 8.26644 92.9416 8.03006V7.48007C92.9457 6.63555 92.7899 5.79852 92.4831 5.01679C92.1762 4.23506 91.7243 3.52393 91.1532 2.92404C90.5821 2.32416 89.903 1.84726 89.1546 1.52057C88.4062 1.19388 87.6033 1.02381 86.7916 1.02007L82.8916 1.00006C81.2528 0.992475 79.6779 1.66246 78.5133 2.86266C77.3488 4.06285 76.6899 5.69498 76.6815 7.40007V7.95006C76.6802 8.18644 76.7255 8.42078 76.8148 8.63967C76.904 8.85856 77.0355 9.05773 77.2017 9.2258C77.3679 9.39388 77.5656 9.52756 77.7835 9.61924C78.0014 9.71091 78.2352 9.75876 78.4716 9.76007Z" stroke="#F39324" stroke-width="2"/>
<path d="M92.4517 12.2206C92.4515 12.1852 92.4444 12.1501 92.4306 12.1174C92.4169 12.0847 92.3968 12.055 92.3716 12.0301C92.3464 12.0051 92.3165 11.9854 92.2837 11.972C92.2509 11.9586 92.2157 11.9518 92.1802 11.952L77.6204 12.0283C77.5488 12.0287 77.4803 12.0575 77.43 12.1084C77.3796 12.1593 77.3516 12.2281 77.3519 12.2997L77.4515 31.3394C77.4517 31.3749 77.4589 31.41 77.4726 31.4427C77.4863 31.4754 77.5064 31.505 77.5316 31.53C77.5568 31.5549 77.5867 31.5747 77.6196 31.588C77.6524 31.6014 77.6876 31.6082 77.723 31.608L92.2828 31.5317C92.3544 31.5313 92.4229 31.5025 92.4733 31.4516C92.5236 31.4007 92.5517 31.3319 92.5513 31.2603L92.4517 12.2206Z" stroke="#F39324" stroke-width="2"/>
<path d="M98.8215 20.07L95.4415 19.98C95.2866 19.976 95.1324 20.0026 94.9877 20.0583C94.843 20.1139 94.7107 20.1975 94.5983 20.3043C94.4859 20.4111 94.3957 20.539 94.3328 20.6807C94.2699 20.8223 94.2355 20.975 94.2316 21.13L94.2216 21.28C94.2032 21.9929 94.2422 22.7002 94.3363 23.3614C94.4304 24.0226 94.5778 24.6249 94.77 25.1338C94.9623 25.6426 95.1956 26.0481 95.4566 26.3272C95.7177 26.6062 96.0014 26.7533 96.2916 26.76L97.6116 26.8C98.1973 26.8145 98.7738 26.2569 99.2144 25.25C99.6551 24.243 99.9238 22.869 99.9616 21.43L99.9716 21.28C99.9756 21.1251 99.949 20.9708 99.8933 20.8261C99.8377 20.6814 99.7541 20.5491 99.6473 20.4367C99.5405 20.3244 99.4126 20.2342 99.2709 20.1712C99.1292 20.1083 98.9765 20.0739 98.8215 20.07Z" stroke="#F39324" stroke-width="2"/>
<path d="M111.901 26.09C112.468 27.8434 112.751 29.6533 112.751 31.52C112.758 41.88 112.955 52.2333 113.341 62.58C113.501 66.77 113.521 75.03 119.281 75.2C128.248 75.4667 139.621 75.38 153.401 74.94C153.788 74.9267 154.395 74.8267 155.221 74.64C155.548 74.5667 155.768 74.3733 155.881 74.06C157.121 70.66 149.601 71.32 147.961 71.32C138.481 71.3067 128.961 71.2834 119.401 71.25C119.034 71.248 118.68 71.1054 118.413 70.8511C118.146 70.5967 117.984 70.2496 117.961 69.88C117.091 56.49 116.911 43.13 116.581 29.71C116.488 26.09 115.281 23.4967 112.961 21.93C110.821 20.48 105.252 21.37 102.302 20.85C102.209 20.8344 102.114 20.8385 102.023 20.8619C101.932 20.8854 101.847 20.9278 101.773 20.9862C101.7 21.0447 101.639 21.118 101.596 21.2013C101.553 21.2847 101.527 21.3762 101.521 21.47L101.321 25.3C101.318 25.3719 101.331 25.4436 101.361 25.5095C101.39 25.5755 101.434 25.6338 101.49 25.6802C101.546 25.7266 101.613 25.7597 101.684 25.777C101.755 25.7943 101.83 25.7954 101.901 25.78C105.001 25.12 108.125 25.0433 111.271 25.55C111.591 25.6033 111.801 25.7834 111.901 26.09Z" stroke="#9C9F62" stroke-width="2"/>
<path d="M57.7916 35C74.2016 34.96 89.7916 36.07 105.952 34.86C106.392 34.8266 106.528 34.6066 106.362 34.2C105.752 32.7 104.492 32.38 102.892 32.85C100.082 33.68 97.1216 32.99 94.6416 33.23C89.1016 33.7566 83.5582 33.8267 78.0116 33.44C73.3816 33.11 60.3516 31.88 57.4716 34.03C57.382 34.098 57.3159 34.1923 57.2825 34.2998C57.2491 34.4072 57.2501 34.5224 57.2854 34.6292C57.3206 34.736 57.3883 34.8292 57.4791 34.8957C57.5698 34.9621 57.6791 34.9986 57.7916 35Z" stroke="#F39324" stroke-width="2"/>
<path d="M68.5716 94.14C68.8316 87.4733 69.2116 82.2666 69.7116 78.52C71.5316 64.9133 73.1149 51.2733 74.4616 37.5999C74.4949 37.2399 74.3316 37.0466 73.9716 37.02C71.4916 36.8 68.5616 76.13 67.9816 80.44C66.8916 88.68 66.6916 93.61 67.2316 100.94C67.2429 101.051 67.2928 101.155 67.3726 101.234C67.4523 101.312 67.557 101.36 67.6685 101.37C67.7799 101.379 67.8912 101.349 67.9831 101.286C68.075 101.222 68.1417 101.128 68.1716 101.02C68.6916 98.84 68.5016 95.97 68.5716 94.14Z" stroke="#F39324" stroke-width="2"/>
<path d="M88.3016 48.97C88.4776 48.9584 88.6463 48.8954 88.7867 48.7887C88.9272 48.682 89.0332 48.5364 89.0916 48.37L92.7616 38.23C92.8114 38.0944 92.8278 37.9488 92.8094 37.8055C92.791 37.6622 92.7384 37.5254 92.656 37.4068C92.5736 37.2881 92.4639 37.191 92.3361 37.1237C92.2082 37.0564 92.0661 37.0208 91.9216 37.02H77.9816C77.8372 37.0208 77.695 37.0564 77.5671 37.1237C77.4393 37.191 77.3296 37.2881 77.2472 37.4068C77.1648 37.5254 77.1123 37.6622 77.0939 37.8055C77.0755 37.9488 77.0918 38.0944 77.1416 38.23L80.9516 48.76C81.018 48.9422 81.1415 49.098 81.3037 49.2043C81.4659 49.3107 81.6581 49.3617 81.8516 49.35L88.3016 48.97Z" stroke="#F39324" stroke-width="2"/>
<path d="M96.5219 38.1578C96.4907 37.9105 96.3624 37.6857 96.1654 37.5329C95.9684 37.3801 95.7188 37.3119 95.4715 37.3431L95.3128 37.3631C95.1904 37.3786 95.0722 37.418 94.9649 37.4792C94.8577 37.5403 94.7635 37.622 94.6879 37.7196C94.6122 37.8171 94.5565 37.9286 94.5239 38.0477C94.4914 38.1667 94.4825 38.291 94.498 38.4135L103.261 107.782C103.293 108.03 103.421 108.254 103.618 108.407C103.815 108.56 104.064 108.628 104.312 108.597L104.47 108.577C104.593 108.561 104.711 108.522 104.818 108.461C104.926 108.4 105.02 108.318 105.095 108.22C105.171 108.123 105.227 108.011 105.259 107.892C105.292 107.773 105.301 107.649 105.285 107.527L96.5219 38.1578Z" stroke="#F39324" stroke-width="2"/>
<path d="M87.746 52.8221C87.7218 52.3745 87.5207 51.955 87.1871 51.6556C86.8535 51.3563 86.4147 51.2018 85.9671 51.226L83.4109 51.3644C83.1893 51.3764 82.9722 51.4319 82.7721 51.5278C82.5719 51.6237 82.3926 51.7581 82.2444 51.9233C82.0961 52.0885 81.9819 52.2813 81.9082 52.4906C81.8345 52.6999 81.8027 52.9218 81.8147 53.1434L82.017 56.8779C82.0413 57.3255 82.2423 57.745 82.5759 58.0443C82.9095 58.3437 83.3484 58.4982 83.7959 58.474L86.3521 58.3356C86.5738 58.3236 86.7908 58.2681 86.991 58.1722C87.1912 58.0763 87.3705 57.9419 87.5187 57.7767C87.6669 57.6115 87.7811 57.4187 87.8548 57.2094C87.9286 57 87.9604 56.7782 87.9483 56.5566L87.746 52.8221Z" stroke="#F39324" stroke-width="2"/>
<path d="M91.9425 62.0838C91.943 61.9341 91.914 61.7857 91.8572 61.6472C91.8004 61.5087 91.7169 61.3827 91.6114 61.2765C91.5059 61.1703 91.3805 61.0859 91.2424 61.0281C91.1043 60.9703 90.9562 60.9403 90.8065 60.9398L79.4465 60.9002C79.2968 60.8996 79.1484 60.9286 79.0099 60.9854C78.8714 61.0422 78.7454 61.1258 78.6392 61.2312C78.5329 61.3367 78.4485 61.4621 78.3908 61.6002C78.333 61.7383 78.303 61.8865 78.3024 62.0362L78.3007 62.5562C78.3001 62.7059 78.3291 62.8542 78.3859 62.9927C78.4427 63.1313 78.5262 63.2572 78.6317 63.3634C78.7372 63.4697 78.8626 63.5541 79.0007 63.6119C79.1388 63.6696 79.2869 63.6996 79.4367 63.7002L90.7966 63.7398C90.9463 63.7403 91.0947 63.7113 91.2332 63.6545C91.3717 63.5977 91.4977 63.5142 91.6039 63.4087C91.7102 63.3032 91.7946 63.1778 91.8524 63.0397C91.9101 62.9016 91.9402 62.7535 91.9407 62.6038L91.9425 62.0838Z" stroke="#F39324" stroke-width="2"/>
<path d="M83.5915 70.67C80.6648 71.7567 77.6282 72.1967 74.4815 71.99C74.3015 71.9767 74.2115 72.0633 74.2115 72.25C74.2115 72.33 74.2115 72.4133 74.2115 72.5C74.2048 72.8333 74.3682 73.0033 74.7015 73.01C78.4415 73.13 82.1048 72.6733 85.6915 71.64C86.1915 71.4933 86.4048 71.1633 86.3315 70.65L85.7215 66.35C85.693 66.1717 85.5994 66.0103 85.4589 65.897C85.3183 65.7836 85.1408 65.7264 84.9605 65.7363C84.7802 65.7463 84.6099 65.8227 84.4827 65.9508C84.3554 66.0789 84.2802 66.2496 84.2715 66.43L84.1215 69.95C84.1015 70.31 83.9248 70.55 83.5915 70.67Z" fill="white" stroke="#9C9F62" stroke-width="2"/>
<path d="M108.607 71.5315C108.577 71.2893 108.207 71.0991 107.577 71.0026C106.948 70.9061 106.11 70.9112 105.249 71.0169C104.389 71.1226 103.575 71.3201 102.987 71.5661C102.4 71.8121 102.086 72.0863 102.116 72.3285C102.146 72.5707 102.516 72.7609 103.146 72.8574C103.776 72.9539 104.613 72.9488 105.474 72.8431C106.334 72.7374 107.148 72.5398 107.736 72.2939C108.323 72.0479 108.637 71.7737 108.607 71.5315Z" stroke="#F39324" stroke-width="2"/>
<path d="M97.4529 72.6053C97.4114 72.3702 97.2783 72.1612 97.0828 72.0243C96.8873 71.8874 96.6454 71.8338 96.4103 71.8752L71.8098 76.213C71.6934 76.2335 71.5822 76.2767 71.4825 76.3402C71.3828 76.4037 71.2966 76.4862 71.2288 76.583C71.161 76.6799 71.1129 76.7891 71.0874 76.9045C71.0618 77.0199 71.0592 77.1392 71.0797 77.2556L71.0901 77.3147C71.1316 77.5497 71.2647 77.7587 71.4602 77.8956C71.6557 78.0325 71.8976 78.0861 72.1327 78.0447L96.7332 73.707C96.8496 73.6865 96.9608 73.6432 97.0605 73.5797C97.1602 73.5162 97.2464 73.4337 97.3142 73.3369C97.382 73.2401 97.4301 73.1308 97.4556 73.0154C97.4812 72.9001 97.4838 72.7808 97.4633 72.6644L97.4529 72.6053Z" stroke="#F39324" stroke-width="2"/>
<path d="M57.9215 78.04C59.8615 73.9 62.8215 76.2401 66.1915 75.2501C66.2732 75.2264 66.3454 75.1759 66.3961 75.1068C66.4468 75.0376 66.4732 74.954 66.4709 74.8694C66.4686 74.7848 66.4377 74.7042 66.3833 74.6408C66.329 74.5774 66.2543 74.5348 66.1715 74.5201C62.3248 73.6867 59.1182 74.6634 56.5515 77.45C56.1315 77.92 56.3215 78.2501 56.8615 78.4601C57.0584 78.5387 57.2779 78.539 57.475 78.4609C57.6721 78.3828 57.8319 78.2322 57.9215 78.04Z" stroke="#9C9F62" stroke-width="2"/>
<path d="M50.9516 88.9C53.6016 88.07 56.8816 83.32 57.8316 80.92C57.9582 80.6066 58.1682 80.3666 58.4616 80.2C60.8016 78.85 63.5715 79.03 65.9315 78.42C66.4115 78.3 66.4616 78.08 66.0816 77.76C64.8716 76.71 60.3316 78.41 59.2216 78.89C58.9083 79.0233 58.6383 79.2167 58.4116 79.47C58.1516 79.7567 57.8282 79.8566 57.4416 79.77C57.0416 79.69 56.7816 79.8433 56.6616 80.23C55.6149 83.6033 53.6282 86.3233 50.7016 88.39C49.7216 89.0833 49.8049 89.2533 50.9516 88.9Z" stroke="#9C9F62" stroke-width="2"/>
<path d="M16.5215 86.33C14.9915 86.24 12.9115 85.52 10.8915 85.85C10.5249 85.91 10.3182 86.1234 10.2715 86.49C9.55821 91.85 7.23156 96.3067 3.29156 99.86C1.27156 101.68 -0.188438 103.55 2.35156 105.7C2.59823 105.913 2.88488 106.02 3.21155 106.02H61.4116C61.6608 106.02 61.9064 105.961 62.1283 105.847C62.3502 105.734 62.5418 105.57 62.6874 105.369C62.833 105.168 62.9284 104.935 62.9656 104.69C63.0029 104.445 62.9809 104.195 62.9016 103.96C61.2882 99.12 57.9882 96.0867 53.0015 94.86C52.6282 94.7667 52.3149 94.5767 52.0615 94.29C48.9549 90.7634 45.0316 88.63 40.2916 87.89C39.9049 87.83 39.5982 87.64 39.3715 87.32C36.7115 83.6 36.7415 79.7 30.8215 79.55C30.4882 79.5434 30.1816 79.6333 29.9016 79.82C25.7716 82.59 21.9515 86.64 16.5215 86.33Z" stroke="#9C9F62" stroke-width="2"/>
<path d="M56.6716 93.7801C62.9916 96.7734 65.7248 101.757 64.8715 108.73C64.8605 108.811 64.8766 108.892 64.9174 108.962C64.9581 109.032 65.0213 109.086 65.0972 109.117C65.1732 109.147 65.2577 109.153 65.3379 109.131C65.4182 109.11 65.4897 109.064 65.5416 109C67.4916 106.42 66.5016 102.76 65.6016 99.9701C64.4616 96.4801 65.1715 93 64.6915 89.39C64.6182 88.8634 64.3715 88.7634 63.9515 89.09L61.6116 90.88C61.3649 91.0734 61.0882 91.1967 60.7816 91.2501C59.2416 91.5434 57.8482 92.2001 56.6016 93.2201C56.3216 93.4467 56.3449 93.6334 56.6716 93.7801Z" stroke="#9C9F62" stroke-width="2"/>
<path d="M93.7815 103.57C96.0915 95.98 85.0314 99.3401 82.3114 95.1801C79.7048 91.2001 75.9781 89.2834 71.1314 89.4301C70.9616 89.4319 70.7984 89.4971 70.673 89.6134C70.5475 89.7296 70.4686 89.8887 70.4515 90.0601L69.3615 102.3C69.3282 102.653 69.1515 102.91 68.8315 103.07C68.6315 103.163 68.5014 103.33 68.4414 103.57C68.4215 103.649 68.4196 103.731 68.436 103.811C68.4523 103.891 68.4865 103.965 68.5358 104.029C68.5851 104.093 68.6483 104.144 68.7204 104.179C68.7925 104.214 68.8715 104.231 68.9515 104.23L93.3114 103.93C93.5514 103.93 93.7081 103.81 93.7815 103.57Z" stroke="#9C9F62" stroke-width="2"/>
</svg>
