<svg width="279" height="85" viewBox="0 0 279 85" fill="none" xmlns="http://www.w3.org/2000/svg">
<path d="M91.1801 38.53C95.3201 38.28 128.58 36.93 128.22 43.07C127.647 53.1167 127.6 63.2067 128.08 73.34C128.093 73.7067 128.287 73.89 128.66 73.89L136.78 73.81C137.133 73.8033 137.31 73.6233 137.31 73.27L137.28 38.75C137.28 38.43 137.12 38.2667 136.8 38.26C129.22 38.14 125.283 34.6367 124.99 27.75C124.66 20.18 128.66 18.14 135.59 18.23C135.778 18.2313 135.964 18.1956 136.138 18.125C136.312 18.0543 136.47 17.9501 136.604 17.8182C136.738 17.6864 136.844 17.5295 136.917 17.3565C136.99 17.1835 137.029 16.9978 137.03 16.81L137.05 1.5C137.05 1.16667 136.88 1 136.54 1H91.5401C91.4408 1.00001 91.3425 1.01949 91.2508 1.05731C91.1591 1.09513 91.0759 1.15055 91.0062 1.22032C90.9364 1.2901 90.8814 1.37285 90.8443 1.46378C90.8072 1.5547 90.7888 1.652 90.7901 1.75L90.8502 38.23C90.8568 38.4433 90.9668 38.5433 91.1801 38.53Z" stroke="#F39324" stroke-width="2"/>
<path d="M249.3 27.9301C253.28 28.4901 259.04 28.4501 258.78 33.8801C258.64 36.7401 256.63 38.2301 253.98 38.6401C253.52 38.7134 253.29 38.9834 253.29 39.4501V72.9401C253.29 73.2195 253.401 73.4876 253.6 73.6861C253.799 73.8846 254.068 73.9974 254.35 74.0001C260.643 74.0067 267.093 74.0067 273.7 74.0001C276.73 73.9901 277.23 73.5301 277.24 70.5001C277.307 54.0201 277.317 37.5201 277.27 21.0001C277.266 20.4647 277.061 19.9507 276.696 19.5611C276.33 19.1716 275.832 18.9354 275.3 18.9001C270.44 18.5701 253.31 17.2801 249.73 19.8801C249.45 20.0867 249.297 20.3667 249.27 20.7201L248.7 27.1801C248.683 27.3569 248.736 27.5335 248.848 27.6732C248.96 27.8129 249.122 27.9049 249.3 27.9301Z" stroke="#F39324" stroke-width="2"/>
<path d="M128.54 24.1401C127.35 28.6401 128.92 34.74 134.54 34.74C173.1 34.76 211.663 34.7534 250.23 34.72C252.043 34.7134 253.813 34.42 255.54 33.84C256.033 33.6734 256.113 33.39 255.78 32.99C255.267 32.37 254.457 32.02 253.35 31.94C231.54 30.4 204.04 27.48 177.64 25.33C163.687 24.1834 149.73 23.0534 135.77 21.94C133.2 21.73 129.45 20.7201 128.54 24.1401Z" stroke="#F39324" stroke-width="2"/>
<path d="M4.05006 39.61C7.06006 43.82 37.66 42.25 43.23 41.68C45.71 41.42 48.03 40.76 50.24 39.89C50.323 39.8582 50.3932 39.7996 50.4392 39.7236C50.4853 39.6475 50.5046 39.5583 50.4943 39.47C50.4839 39.3817 50.4445 39.2994 50.3822 39.236C50.3199 39.1726 50.2381 39.1318 50.15 39.12C34.85 36.92 19.55 36.9267 4.25001 39.14C4.19938 39.1477 4.15156 39.1681 4.11109 39.1995C4.07062 39.2308 4.03885 39.272 4.01881 39.3191C3.99876 39.3663 3.99113 39.4177 3.99659 39.4686C4.00205 39.5196 4.02047 39.5682 4.05006 39.61Z" stroke="#F39324" stroke-width="2"/>
<path d="M181.312 38.7156C181.312 38.6578 181.301 38.6006 181.279 38.5472C181.257 38.4937 181.225 38.4451 181.184 38.4042C181.143 38.3633 181.094 38.3308 181.041 38.3086C180.988 38.2864 180.93 38.2749 180.873 38.2748L141.013 38.2052C140.955 38.2051 140.898 38.2164 140.844 38.2384C140.791 38.2604 140.742 38.2928 140.701 38.3336C140.66 38.3744 140.628 38.4228 140.606 38.4761C140.584 38.5295 140.572 38.5867 140.572 38.6445L140.508 75.3244C140.508 75.3822 140.519 75.4394 140.541 75.4929C140.563 75.5463 140.596 75.5949 140.636 75.6358C140.677 75.6767 140.726 75.7092 140.779 75.7314C140.832 75.7536 140.89 75.7651 140.947 75.7652L180.807 75.8348C180.865 75.8349 180.922 75.8236 180.976 75.8016C181.029 75.7796 181.078 75.7472 181.119 75.7065C181.16 75.6657 181.192 75.6172 181.214 75.5638C181.236 75.5105 181.248 75.4533 181.248 75.3955L181.312 38.7156Z" stroke="#F39324" stroke-width="2"/>
<path d="M249.459 39.4591C249.459 39.3383 249.436 39.2186 249.39 39.1068C249.344 38.995 249.277 38.8933 249.192 38.8076C249.107 38.7219 249.005 38.6538 248.894 38.6072C248.782 38.5605 248.663 38.5363 248.542 38.5359L239.522 38.5044C239.278 38.5035 239.044 38.5997 238.871 38.7716C238.698 38.9435 238.6 39.1771 238.599 39.4211L238.481 73.1409C238.481 73.2617 238.504 73.3814 238.55 73.4932C238.596 73.605 238.663 73.7067 238.748 73.7924C238.834 73.8781 238.935 73.9462 239.046 73.9929C239.158 74.0395 239.277 74.0637 239.398 74.0641L248.418 74.0956C248.662 74.0965 248.896 74.0003 249.069 73.8284C249.242 73.6565 249.34 73.4229 249.341 73.1789L249.459 39.4591Z" stroke="#F39324" stroke-width="2"/>
<path d="M122.74 43.192C122.739 42.8466 122.159 42.5066 121.033 42.1914C119.908 41.8763 118.259 41.5921 116.181 41.3552C114.103 41.1182 111.637 40.9331 108.922 40.8104C106.207 40.6877 103.298 40.6298 100.361 40.6401C97.423 40.6503 94.5144 40.7285 91.8008 40.8701C89.0872 41.0118 86.6218 41.2141 84.5454 41.4656C82.469 41.717 80.8223 42.0127 79.6992 42.3358C78.5762 42.6588 77.9988 43.0028 78 43.3482C78.0012 43.6936 78.581 44.0335 79.7063 44.3487C80.8316 44.6638 82.4804 44.948 84.5585 45.185C86.6366 45.4219 89.1034 45.607 91.8179 45.7297C94.5324 45.8524 97.4415 45.9103 100.379 45.9001C103.317 45.8898 106.225 45.8116 108.939 45.67C111.653 45.5283 114.118 45.326 116.194 45.0745C118.271 44.8231 119.918 44.5274 121.041 44.2044C122.164 43.8814 122.741 43.5373 122.74 43.192Z" stroke="#F39324" stroke-width="2"/>
<path d="M8.16003 61.9799C10.25 55.84 36.7301 57.4799 41.9401 57.7099C42.5067 57.7299 42.6533 57.4933 42.38 56.9999C41.6733 55.7066 41.6167 54.4266 42.2101 53.1599C42.3567 52.8533 42.5867 52.6366 42.9 52.5099C46.0267 51.2166 49.2733 50.4366 52.64 50.17C52.8249 50.1562 52.9989 50.0761 53.1309 49.9442C53.2628 49.8122 53.344 49.637 53.36 49.45L53.8101 44.4999C53.8266 44.3272 53.804 44.1529 53.7443 43.9901C53.6845 43.8273 53.5889 43.6803 53.4648 43.5601C53.3407 43.4398 53.1913 43.3494 53.0277 43.2957C52.8641 43.242 52.6905 43.2264 52.52 43.2499C35.5334 45.4099 18.5501 45.3966 1.57007 43.2099C1.19007 43.1633 1 43.3333 1 43.7199L1.06006 78.3799C1.06006 78.7933 1.26672 78.9999 1.68005 78.9999H8.23999C8.58666 78.9999 8.76335 78.8266 8.77002 78.4799C8.85669 73.9599 8.75676 69.4366 8.47009 64.9099C8.41009 64.0899 7.86003 62.8799 8.16003 61.9799Z" stroke="#F39324" stroke-width="2"/>
<path d="M76.61 49.58L87.5501 52.22C88.0099 52.3314 88.418 52.5962 88.7071 52.9707C88.9961 53.3452 89.1488 53.807 89.14 54.28L88.6701 80.34C88.6634 80.8267 88.9 81.07 89.38 81.07L122.82 80.97C123.024 80.9687 123.225 80.9273 123.413 80.8482C123.6 80.7691 123.77 80.6538 123.913 80.509C124.056 80.3641 124.169 80.1925 124.246 80.004C124.323 79.8154 124.361 79.6136 124.36 79.41L124.26 47.47C124.26 47.13 124.09 46.9867 123.75 47.04C108.77 49.24 93.7834 49.3134 78.7901 47.26C77.2767 47.0534 76.3434 47.4467 75.99 48.44C75.9488 48.5554 75.9324 48.6781 75.9418 48.8002C75.9513 48.9224 75.9864 49.0412 76.045 49.1488C76.1035 49.2564 76.184 49.3504 76.2814 49.4248C76.3788 49.4991 76.4908 49.552 76.61 49.58Z" stroke="#F39324" stroke-width="2"/>
<path d="M47.5701 54.63C48.7968 55.29 49.9467 55.7033 51.0201 55.87C62.6701 57.69 73.7501 56.79 85.3501 55.46C85.8501 55.4066 85.8834 55.25 85.4501 54.99C83.6501 53.93 82.1001 53.3366 80.8001 53.21C69.5868 52.11 58.5401 52.4166 47.6601 54.13C47.1401 54.2166 47.1101 54.3833 47.5701 54.63Z" stroke="#F39324" stroke-width="2"/>
<path d="M85.3301 59.25L52.0301 59.71C51.9907 59.7113 51.952 59.7204 51.9161 59.7366C51.8802 59.7529 51.8478 59.7761 51.8208 59.8049C51.7939 59.8337 51.7729 59.8675 51.7591 59.9044C51.7452 59.9413 51.7387 59.9806 51.74 60.02L51.9001 71.56C51.9403 74.4313 52.0777 77.1833 52.282 79.2119C52.4864 81.2405 52.741 82.3799 52.99 82.38L85.0101 81.94C85.1337 81.9406 85.2523 81.66 85.3589 81.1143C85.4656 80.5685 85.5583 79.7684 85.6316 78.7596C85.705 77.7508 85.7576 76.5532 85.7865 75.2354C85.8154 73.9177 85.8201 72.5055 85.8001 71.08L85.6301 59.54C85.6275 59.4622 85.5947 59.3884 85.5387 59.3343C85.4828 59.2802 85.408 59.25 85.3301 59.25Z" stroke="#F39324" stroke-width="2"/>
<path d="M15.24 63.68C25.32 65.9 35.4701 66.15 45.6901 64.43C46.0301 64.37 46.2233 64.1667 46.27 63.82C47.16 57.39 17.39 61.25 13.53 61.99C13.3862 62.0192 13.254 62.09 13.15 62.1936C13.046 62.2972 12.9748 62.429 12.9449 62.5727C12.9151 62.7164 12.9282 62.8657 12.9824 63.0021C13.0367 63.1385 13.1296 63.256 13.25 63.34C13.59 63.57 14.82 63.58 15.24 63.68Z" stroke="#F39324" stroke-width="2"/>
<path d="M48.55 66.59C36.4 68.13 26.2501 68.14 12.8401 66.75C12.4468 66.71 12.25 66.8867 12.25 67.28L12.37 82.6701C12.3726 82.9574 12.4886 83.2321 12.6927 83.4343C12.8969 83.6366 13.1727 83.7501 13.4601 83.75H48.01C48.2832 83.75 48.5452 83.6415 48.7384 83.4484C48.9316 83.2552 49.04 82.9932 49.04 82.72V67.02C49.04 66.6934 48.8767 66.55 48.55 66.59Z" stroke="#F39324" stroke-width="2"/>
<path d="M103.41 27.7L108.06 28.04C108.178 28.0478 108.297 28.0277 108.406 27.9814C108.515 27.9352 108.612 27.864 108.689 27.7737C108.766 27.6833 108.82 27.5762 108.848 27.4609C108.876 27.3457 108.877 27.2255 108.85 27.11C108.143 24.17 108.067 21.2033 108.62 18.21C108.7 17.7833 108.527 17.5733 108.1 17.58L103.09 17.65C102.663 17.65 102.497 17.8567 102.59 18.27L103.49 22.11C103.57 22.4367 103.54 22.7567 103.4 23.07C102.827 24.3633 102.637 25.73 102.83 27.17C102.877 27.5033 103.07 27.68 103.41 27.7Z" stroke="#F39324" stroke-width="2"/>
<path d="M114.16 18.79C113.58 17.89 112.774 17.4534 111.74 17.48C111.347 17.4934 111.174 17.6967 111.22 18.09C111.627 21.17 111.62 24.25 111.2 27.33C111.14 27.77 111.33 27.9867 111.77 27.98L116.59 27.87C116.864 27.8634 116.997 27.7234 116.99 27.45L116.89 18.31C116.888 18.1588 116.839 18.0119 116.751 17.8891C116.662 17.7664 116.538 17.6737 116.395 17.6236C116.253 17.5735 116.098 17.5683 115.952 17.6088C115.807 17.6493 115.677 17.7335 115.58 17.85L114.79 18.82C114.564 19.0934 114.354 19.0834 114.16 18.79Z" stroke="#F39324" stroke-width="2"/>
<path d="M166.956 46.3828C166.935 45.9617 166.747 45.5662 166.434 45.2835C166.121 45.0008 165.709 44.854 165.288 44.8753L161.832 45.0503C161.411 45.0717 161.016 45.2594 160.733 45.5723C160.45 45.8852 160.303 46.2976 160.325 46.7187L160.384 47.8772C160.405 48.2984 160.593 48.6938 160.905 48.9765C161.218 49.2592 161.631 49.4061 162.052 49.3847L165.508 49.2097C165.929 49.1884 166.324 49.0006 166.607 48.6877C166.889 48.3749 167.036 47.9625 167.015 47.5413L166.956 46.3828Z" stroke="#F39324" stroke-width="2"/>
<path d="M105.01 19.2C105 19.0974 105.023 18.9942 105.076 18.9058C105.13 18.8174 105.21 18.7484 105.305 18.7091C105.4 18.6698 105.506 18.6624 105.606 18.6877C105.706 18.7131 105.795 18.77 105.86 18.85C106.5 19.6967 106.773 20.6234 106.68 21.63C106.613 22.4034 106.374 22.4633 105.96 21.81C105.434 20.9633 105.117 20.0934 105.01 19.2Z" fill="white"/>
<path d="M104.373 24.1183C104.237 24.9858 104.618 25.766 105.224 25.8609C105.83 25.9557 106.431 25.3293 106.567 24.4617C106.702 23.5942 106.322 22.814 105.716 22.7191C105.11 22.6243 104.509 23.2507 104.373 24.1183Z" fill="white"/>
</svg>
