<svg width="242" height="86" viewBox="0 0 242 86" fill="none" xmlns="http://www.w3.org/2000/svg">
<path d="M223.262 31.08C223.263 31.1242 223.254 31.1679 223.236 31.2086C223.219 31.2494 223.194 31.2862 223.162 31.317C223.131 31.3477 223.093 31.3718 223.052 31.3878C223.011 31.4038 222.967 31.4113 222.922 31.41L213.712 31.18C213.668 31.1787 213.624 31.1862 213.583 31.2022C213.542 31.2182 213.504 31.2423 213.473 31.273C213.441 31.3038 213.416 31.3406 213.398 31.3813C213.381 31.4221 213.372 31.4658 213.372 31.51L213.382 79.72C213.382 79.8075 213.417 79.8915 213.479 79.9533C213.541 80.0152 213.625 80.05 213.712 80.05L240.142 79.89C240.23 79.89 240.314 79.8552 240.376 79.7933C240.438 79.7314 240.472 79.6475 240.472 79.56V1.33C240.472 1.24248 240.438 1.15854 240.376 1.09665C240.314 1.03476 240.23 1 240.142 1H199.432C199.345 1 199.261 1.03476 199.199 1.09665C199.137 1.15854 199.102 1.24248 199.102 1.33L199.072 11.87C199.071 11.915 199.079 11.9599 199.095 12.0017C199.112 12.0436 199.137 12.0816 199.169 12.1135C199.201 12.1453 199.239 12.1704 199.281 12.187C199.323 12.2035 199.367 12.2114 199.412 12.21L222.882 11.2C222.927 11.1987 222.971 11.2062 223.012 11.2222C223.053 11.2382 223.091 11.2623 223.122 11.293C223.154 11.3238 223.179 11.3607 223.196 11.4014C223.214 11.4421 223.222 11.4858 223.222 11.53L223.262 31.08Z" stroke="#F39324" stroke-width="2"/>
<path d="M77.7724 26.77C77.7667 26.8178 77.7713 26.8664 77.7858 26.9124C77.8003 26.9584 77.8245 27.0007 77.8567 27.0367C77.8888 27.0726 77.9282 27.1013 77.9723 27.1208C78.0164 27.1404 78.0642 27.1503 78.1124 27.15L218.742 27.65C218.833 27.65 218.919 27.6141 218.983 27.5504C219.047 27.4866 219.082 27.4001 219.082 27.31L218.992 15.9C218.992 15.8545 218.983 15.8094 218.966 15.7675C218.948 15.7256 218.922 15.6876 218.889 15.6559C218.857 15.6242 218.818 15.5994 218.776 15.5829C218.733 15.5664 218.688 15.5586 218.642 15.56L78.7424 21.48C78.662 21.4815 78.5847 21.5114 78.5243 21.5645C78.4639 21.6176 78.4242 21.6904 78.4124 21.77L77.7724 26.77Z" stroke="#F39324" stroke-width="2"/>
<path d="M208.741 32.4191C208.741 32.3442 208.726 32.2702 208.698 32.2011C208.669 32.1319 208.627 32.0692 208.574 32.0163C208.521 31.9635 208.458 31.9216 208.389 31.8931C208.319 31.8646 208.245 31.85 208.17 31.8501L150.99 31.9499C150.916 31.95 150.842 31.9649 150.772 31.9937C150.703 32.0225 150.641 32.0645 150.588 32.1176C150.535 32.1706 150.493 32.2335 150.464 32.3027C150.436 32.3719 150.421 32.4461 150.422 32.5209L150.503 79.4809C150.504 79.5557 150.518 79.6298 150.547 79.6989C150.576 79.768 150.618 79.8308 150.671 79.8837C150.724 79.9365 150.787 79.9784 150.856 80.0069C150.925 80.0354 151 80.05 151.074 80.0499L208.254 79.9501C208.329 79.95 208.403 79.9351 208.472 79.9063C208.542 79.8776 208.604 79.8355 208.657 79.7824C208.71 79.7294 208.752 79.6665 208.78 79.5973C208.809 79.5281 208.823 79.4539 208.823 79.3791L208.741 32.4191Z" stroke="#F39324" stroke-width="2"/>
<path d="M80.3524 50.3901C86.0191 50.9834 90.3257 53.6467 93.2724 58.3801C93.3141 58.4454 93.3709 58.5 93.4377 58.5391C93.5046 58.5782 93.5796 58.6006 93.6562 58.6046C93.7329 58.6085 93.809 58.5938 93.878 58.5616C93.947 58.5295 94.0069 58.4809 94.0524 58.4201L97.4524 53.9501C97.6524 53.6901 97.6957 53.41 97.5824 53.11L95.3624 47.0301C95.2557 46.7301 95.0491 46.6234 94.7424 46.71C90.8024 47.8367 86.7824 48.4067 82.6824 48.4201C81.9424 48.4301 80.5624 48.96 80.0624 49.36C79.3224 49.9467 79.4191 50.2901 80.3524 50.3901Z" stroke="#F39324" stroke-width="2"/>
<path d="M108.972 54.2L111.072 51.94C111.419 51.5667 111.356 51.2934 110.882 51.12L103.672 48.44C103.38 48.3316 103.064 48.2987 102.755 48.3442C102.447 48.3898 102.154 48.5123 101.905 48.7006C101.656 48.8889 101.458 49.1369 101.33 49.4216C101.202 49.7064 101.148 50.0188 101.172 50.33L101.332 52.21C101.352 52.5167 101.506 52.7233 101.792 52.83L107.872 55.14C108.159 55.2467 108.372 55.1667 108.512 54.9L108.662 54.64C108.742 54.48 108.846 54.3334 108.972 54.2Z" stroke="#F39324" stroke-width="2"/>
<path d="M134.062 59.62L142.542 64.12C142.689 64.1988 142.854 64.2396 143.021 64.2387C143.187 64.2377 143.351 64.195 143.498 64.1145C143.644 64.034 143.767 63.9182 143.857 63.7777C143.947 63.6372 144.001 63.4764 144.012 63.31L144.302 59.74C144.369 58.9533 144.009 58.51 143.222 58.41L129.042 56.62C128.831 56.5926 128.638 56.488 128.501 56.3269C128.364 56.1659 128.293 55.96 128.302 55.75L128.542 50.52C128.556 50.12 128.369 49.8633 127.982 49.75L123.382 48.41C122.982 48.29 122.619 48.3633 122.292 48.63L113.572 55.8C113.239 56.0733 113.169 56.4066 113.362 56.8L114.032 58.11C114.172 58.39 114.239 58.6833 114.232 58.99C114.166 62.4033 115.686 64.3867 118.792 64.94C121.052 65.35 125.362 61.95 127.092 64.41C127.229 64.6038 127.41 64.7625 127.62 64.8729C127.83 64.9834 128.063 65.0425 128.3 65.0454C128.537 65.0484 128.771 64.995 128.984 64.8898C129.196 64.7845 129.381 64.6304 129.522 64.44L132.892 59.89C133.206 59.4633 133.596 59.3733 134.062 59.62Z" stroke="#F39324" stroke-width="2"/>
<path d="M11.1424 64.28C13.1424 66.03 15.6324 63.6 16.2224 61.9C16.2768 61.7485 16.3701 61.6138 16.4928 61.5097C16.6155 61.4055 16.7632 61.3357 16.9208 61.3072C17.0784 61.2787 17.2403 61.2927 17.3899 61.3476C17.5395 61.4026 17.6715 61.4966 17.7724 61.62C18.6591 62.6866 19.7791 63.2433 21.1324 63.29C21.4924 63.3033 21.7924 63.1766 22.0324 62.91L27.8324 56.47C28.1191 56.15 28.2024 55.78 28.0824 55.36L26.3625 49.37C26.3253 49.24 26.262 49.1189 26.1762 49.0142C26.0905 48.9094 25.9841 48.8231 25.8635 48.7605C25.7429 48.6979 25.6107 48.6602 25.4747 48.6498C25.3387 48.6394 25.2019 48.6565 25.0724 48.7C21.7858 49.8066 18.3825 50.3066 14.8625 50.2C11.6125 50.1 8.81243 51.12 8.45243 54.5C8.27243 56.14 9.21243 62.59 11.1424 64.28Z" stroke="#F39324" stroke-width="2"/>
<path d="M40.6923 52.4201L33.6523 50.52C33.5138 50.4822 33.3691 50.4722 33.2267 50.4904C33.0842 50.5087 32.9468 50.5549 32.8222 50.6265C32.6977 50.6981 32.5886 50.7935 32.5011 50.9074C32.4136 51.0213 32.3494 51.1513 32.3124 51.29L32.2723 51.43C32.1506 51.8771 32.1131 52.3423 32.1618 52.7991C32.2106 53.2559 32.3448 53.6953 32.5566 54.092C32.7684 54.4887 33.0537 54.8349 33.3962 55.1109C33.7387 55.3868 34.1316 55.587 34.5523 55.7L37.3124 56.44C38.16 56.6677 39.0692 56.528 39.8399 56.0517C40.6107 55.5754 41.1799 54.8014 41.4223 53.9L41.4623 53.76C41.5001 53.6215 41.5102 53.4768 41.4919 53.3344C41.4736 53.1919 41.4274 53.0545 41.3559 52.93C41.2843 52.8054 41.1889 52.6963 41.075 52.6088C40.9611 52.5213 40.831 52.4571 40.6923 52.4201Z" stroke="#F39324" stroke-width="2"/>
<path d="M58.6424 57.3999L59.5024 52.92C59.5758 52.5533 59.4424 52.28 59.1024 52.1C56.3924 50.69 53.8624 50.0899 51.1124 52.0599C48.6324 53.8399 46.3391 55.8699 44.2324 58.1499C43.9924 58.4099 43.9324 58.7066 44.0524 59.04C44.5258 60.3933 44.9324 61.76 45.2724 63.14C46.5924 68.52 51.2424 67.56 54.8124 65.13C55.0991 64.9366 55.3757 64.95 55.6424 65.17L58.0724 67.1499C58.2764 67.3178 58.5392 67.3972 58.8034 67.371C59.0676 67.3448 59.3117 67.215 59.4824 67.01L62.8624 62.89C63.0824 62.6233 63.3591 62.4466 63.6924 62.3599C66.3824 61.6399 68.9824 63.85 71.1424 65.14C75.4124 67.7 76.6824 60.1 71.2524 59.95C67.2058 59.8366 63.2157 59.3166 59.2824 58.39C58.7557 58.2633 58.5424 57.9333 58.6424 57.3999Z" stroke="#F39324" stroke-width="2"/>
<path d="M80.9325 67.46C83.5925 66.98 86.1559 67.23 88.6225 68.21C88.9359 68.3367 89.2458 68.3367 89.5525 68.21C95.7225 65.65 84.6625 53.04 78.5725 54.67C78.222 54.7616 77.9214 54.9874 77.7346 55.2993C77.5478 55.6113 77.4896 55.9847 77.5725 56.34L80.0025 66.84C80.1159 67.34 80.4259 67.5467 80.9325 67.46Z" stroke="#F39324" stroke-width="2"/>
<path d="M95.6724 63.83L98.5123 66.51C98.779 66.77 99.0557 66.7833 99.3424 66.55L105.582 61.56C105.956 61.2667 106.352 61.2234 106.772 61.43L109.572 62.79C109.899 62.95 110.166 62.8767 110.372 62.57C110.826 61.91 110.812 61.1767 110.332 60.37C110.1 59.9834 109.738 59.6955 109.312 59.56L102.422 57.32C102.096 57.2134 101.779 57.2367 101.472 57.39C98.9857 58.63 97.009 60.44 95.5424 62.82C95.309 63.1934 95.3524 63.53 95.6724 63.83Z" stroke="#F39324" stroke-width="2"/>
<path d="M35.8124 60.84C30.9124 56.03 29.1924 62.53 25.9924 64.44C25.7737 64.5692 25.5956 64.7569 25.4781 64.982C25.3606 65.2071 25.3083 65.4609 25.3269 65.715C25.3456 65.9691 25.4345 66.2135 25.5838 66.421C25.7331 66.6285 25.9369 66.7909 26.1724 66.89L29.6524 68.34C30.079 68.52 30.469 68.46 30.8224 68.16L36.5124 63.31C36.8057 63.0567 37.0824 63.07 37.3424 63.35L38.6124 64.69C38.8991 64.9967 39.2457 65.1 39.6524 65L40.5124 64.79C40.979 64.6767 41.1457 64.39 41.0124 63.93C40.339 61.61 38.8857 60.6633 36.6524 61.09C36.3257 61.15 36.0457 61.0667 35.8124 60.84Z" stroke="#F39324" stroke-width="2"/>
<path d="M2.53236 69.4099L8.88233 70.0299C9.54233 70.0966 9.71234 69.8399 9.39234 69.2599L5.68238 62.5299C5.14238 61.5499 4.55236 61.5166 3.91236 62.4299C2.59236 64.3233 1.95572 66.4599 2.00239 68.8399C2.00906 69.1866 2.18569 69.3766 2.53236 69.4099Z" stroke="#F39324" stroke-width="2"/>
<path d="M142.672 68.72C140.212 67.4467 137.712 66.21 135.172 65.01C134.879 64.87 134.629 64.93 134.422 65.19L131.362 69.08C131.176 69.32 131.189 69.55 131.402 69.77L134.652 73.13C134.906 73.3967 135.022 73.7133 135.002 74.08C134.922 75.42 133.002 77.07 134.492 78.13C134.766 78.33 135.072 78.4 135.412 78.34C137.162 78.04 145.202 77.21 145.742 75.86C147.122 72.44 145.822 70.34 142.672 68.72Z" stroke="#F39324" stroke-width="2"/>
<path d="M128.322 79.84C132.422 75.36 127.532 70.93 124.132 68.41C123.872 68.2167 123.592 68.1734 123.292 68.28L115.592 71.05C115.273 71.1648 114.93 71.2029 114.591 71.1612C114.253 71.1195 113.928 70.9993 113.642 70.81L106.922 66.32C106.783 66.2289 106.617 66.1872 106.451 66.2017C106.286 66.2162 106.131 66.2861 106.012 66.4C101.692 70.4 94.2124 74.55 96.2024 81.34C96.2891 81.6334 96.4858 81.7734 96.7924 81.76L127.372 80.28C127.752 80.26 128.069 80.1134 128.322 79.84Z" stroke="#F39324" stroke-width="2"/>
<path d="M4.67236 74.5101C3.29236 83.1301 16.6923 82.0501 21.8223 81.9801C22.3423 81.9734 22.5957 81.7134 22.5823 81.2001L22.4623 76.06C22.4557 75.6867 22.599 75.3834 22.8923 75.15L26.0123 72.65C26.3657 72.3634 26.3557 72.09 25.9824 71.83L18.6523 66.8C18.4816 66.6788 18.2733 66.6215 18.0634 66.6379C17.8535 66.6543 17.6551 66.7435 17.5024 66.8901C13.4524 70.7601 11.6024 74.24 5.24237 74.03C4.9157 74.0234 4.7257 74.1834 4.67236 74.5101Z" stroke="#F39324" stroke-width="2"/>
<path d="M65.6423 76.09L64.8423 79.88C64.823 79.9676 64.8262 80.0588 64.8517 80.1448C64.8772 80.2309 64.9241 80.3091 64.988 80.372C65.052 80.435 65.1309 80.4807 65.2174 80.5049C65.3039 80.529 65.395 80.5308 65.4824 80.51C71.3624 79.1633 77.3057 78.4067 83.3124 78.24C89.1324 78.08 87.0023 71.09 84.4023 71.32C81.0523 71.61 77.0924 72.62 73.9324 71.19C71.3857 70.0367 68.869 68.7267 66.3823 67.26C66.069 67.0667 65.7457 67.05 65.4124 67.21C61.2524 69.16 61.7523 73.01 65.3223 75.32C65.609 75.5067 65.7157 75.7633 65.6423 76.09Z" stroke="#F39324" stroke-width="2"/>
<path d="M60.4724 76.34C57.6724 72.85 55.2124 69.13 50.7324 71.31C49.4991 71.91 47.8058 72.4633 45.6524 72.97C45.2658 73.0566 44.9057 72.9966 44.5724 72.79L37.5124 68.2999C37.1391 68.0666 36.7891 68.0966 36.4624 68.39L26.5924 77.17C26.2791 77.4433 26.1358 77.79 26.1624 78.21L26.4325 83.39C26.4525 83.7633 26.6524 83.94 27.0324 83.92C36.4058 83.3866 45.7824 82.8833 55.1624 82.41C56.5558 82.3433 57.9491 82.1033 59.3424 81.69C59.7024 81.5833 59.9158 81.3466 59.9824 80.98L60.7024 77.24C60.7624 76.9066 60.6858 76.6066 60.4724 76.34Z" stroke="#F39324" stroke-width="2"/>
<path d="M90.1624 79.9C90.233 80.0719 90.3612 80.2138 90.5251 80.3015C90.6889 80.3891 90.8781 80.417 91.0603 80.3804C91.2424 80.3437 91.4062 80.2448 91.5234 80.1005C91.6405 79.9563 91.7038 79.7758 91.7024 79.59L91.7324 77.24C91.7391 76.62 91.499 76.5034 91.0124 76.89C89.9524 77.7434 89.6691 78.7467 90.1624 79.9Z" stroke="#F39324" stroke-width="2"/>
<path d="M175.749 42.48C175.745 42.3409 175.714 42.2038 175.658 42.0766C175.601 41.9495 175.52 41.8347 175.419 41.7389C175.318 41.643 175.199 41.568 175.069 41.5182C174.939 41.4683 174.801 41.4445 174.661 41.4481L168.324 41.614C168.043 41.6214 167.776 41.7401 167.583 41.9441C167.389 42.148 167.285 42.4204 167.292 42.7014L167.396 46.68C167.4 46.8192 167.431 46.9563 167.487 47.0834C167.544 47.2106 167.625 47.3254 167.726 47.4212C167.827 47.517 167.946 47.592 168.076 47.6419C168.206 47.6918 168.344 47.7156 168.483 47.7119L174.821 47.546C175.102 47.5386 175.369 47.4199 175.562 47.216C175.756 47.0121 175.86 46.7396 175.853 46.4586L175.749 42.48Z" stroke="#F39324" stroke-width="2"/>
<path d="M80.2459 51.3844L80.2483 51.3846C85.6159 51.9467 89.644 54.4438 92.4234 58.9086L92.4234 58.9086L92.4297 58.9185C92.5567 59.1173 92.7292 59.2831 92.9328 59.4022C93.1366 59.5214 93.367 59.5911 93.605 59.6033C93.8432 59.6155 94.082 59.5698 94.3002 59.4681C94.5168 59.3673 94.7057 59.2147 94.8501 59.0232C94.851 59.0219 94.852 59.0206 94.853 59.0193L98.245 54.5598C98.2456 54.559 98.2462 54.5582 98.2468 54.5575C98.6494 54.0326 98.756 53.3928 98.5201 52.7627L96.3028 46.6901C96.1957 46.3914 95.985 46.0423 95.5861 45.8364C95.1851 45.6295 94.7763 45.6613 94.4705 45.7477L94.4675 45.7486C90.6159 46.85 86.6873 47.407 82.6792 47.4201L82.6792 47.42L82.6689 47.4202C82.1276 47.4275 81.4701 47.6094 80.9375 47.8052C80.4062 48.0004 79.815 48.2773 79.4377 48.5792L80.0624 49.36L79.4412 48.5764C79.2232 48.7492 79.0034 48.952 78.8419 49.1855C78.6907 49.404 78.4749 49.8226 78.6173 50.3285C78.7607 50.838 79.167 51.0817 79.4139 51.188C79.6758 51.3007 79.9704 51.3549 80.2459 51.3844Z" fill="white" stroke="#9C9F62" stroke-width="2"/>
<path d="M109.529 55.1399L109.544 55.114L109.557 55.0873C109.591 55.0182 109.637 54.9525 109.697 54.8888L109.697 54.8888L109.705 54.8807L111.805 52.6207L111.805 52.6205C112.026 52.3829 112.41 51.8807 112.259 51.2293C112.107 50.5723 111.536 50.2946 111.229 50.1819C111.228 50.1816 111.227 50.1813 111.226 50.181L104.021 47.5027L104.02 47.5022C103.569 47.3356 103.084 47.2849 102.61 47.3549C102.135 47.425 101.685 47.6134 101.302 47.9029C100.919 48.1924 100.615 48.5737 100.418 49.0116C100.221 49.4495 100.138 49.9298 100.176 50.4083L100.176 50.4083L100.176 50.4148L100.335 52.2867C100.357 52.5907 100.45 52.9088 100.659 53.1909C100.871 53.4756 101.151 53.6578 101.44 53.7658L107.517 56.0748L107.517 56.0749L107.524 56.0773C107.815 56.1856 108.199 56.2462 108.599 56.0963C108.991 55.9492 109.239 55.6593 109.387 55.3859L109.529 55.1399Z" fill="white" stroke="#9C9F62" stroke-width="2"/>
<path d="M133.658 60.5372L142.07 65.0013C142.07 65.0016 142.071 65.002 142.072 65.0023C142.365 65.1593 142.693 65.2406 143.026 65.2386C143.36 65.2367 143.688 65.1514 143.98 64.9904C144.272 64.8294 144.52 64.5979 144.7 64.3167C144.878 64.0373 144.985 63.7178 145.01 63.3871C145.01 63.3852 145.01 63.3832 145.01 63.3813L145.299 59.8244C145.299 59.8239 145.299 59.8233 145.299 59.8227C145.345 59.2721 145.255 58.6754 144.859 58.1871C144.462 57.6991 143.897 57.4877 143.349 57.418L143.348 57.4179L129.308 55.6456L129.541 50.5658L129.541 50.5658L129.542 50.5533C129.554 50.1898 129.476 49.7905 129.221 49.4394C128.966 49.089 128.611 48.8922 128.264 48.7904L128.262 48.7899L123.665 47.4509C122.945 47.2362 122.24 47.3821 121.66 47.8553L121.657 47.8576L112.938 55.0267C112.938 55.0269 112.938 55.027 112.938 55.0272C112.643 55.2692 112.384 55.6064 112.291 56.0495C112.199 56.4906 112.298 56.9021 112.465 57.2411L112.469 57.2482L112.472 57.2553L113.14 58.5606C113.207 58.6971 113.236 58.8288 113.233 58.9682L113.233 58.9704C113.196 60.8214 113.588 62.4182 114.529 63.6458C115.477 64.8835 116.884 65.6156 118.616 65.9243C119.432 66.0718 120.325 65.8686 121.084 65.6427C121.483 65.5243 121.891 65.3843 122.282 65.249C122.311 65.2391 122.339 65.2293 122.368 65.2195C122.735 65.0923 123.089 64.9698 123.439 64.8609C124.209 64.6209 124.838 64.487 125.334 64.5114C125.774 64.5331 126.053 64.6708 126.274 64.9852L126.275 64.9863C126.503 65.3093 126.804 65.5737 127.154 65.7578C127.504 65.9419 127.892 66.0405 128.287 66.0453C128.683 66.0502 129.073 65.9613 129.428 65.7859C129.782 65.6106 130.089 65.3537 130.325 65.0363L130.326 65.0352L133.658 60.5372Z" fill="white" stroke="#9C9F62" stroke-width="2"/>
<path d="M10.4839 65.0325L10.4836 65.0323C9.8242 64.4549 9.33192 63.5603 8.95765 62.6496C8.57256 61.7126 8.26487 60.6383 8.03029 59.5895C7.79501 58.5375 7.62805 57.4876 7.53117 56.5896C7.43682 55.7151 7.40106 54.9157 7.45821 54.3925C7.67113 52.3974 8.63584 51.0095 10.0735 50.1791C11.4532 49.3821 13.1793 49.1478 14.8928 49.2004L10.4839 65.0325ZM10.4839 65.0325C11.1625 65.6263 11.9311 65.8977 12.7128 65.8853C13.4709 65.8733 14.1667 65.5968 14.7475 65.2277C15.8292 64.5404 16.7089 63.4076 17.1096 62.3837C18.1585 63.5837 19.5053 64.2341 21.0967 64.2893C21.7508 64.3132 22.3366 64.0668 22.7755 63.5792C22.7756 63.5791 22.7757 63.579 22.7757 63.5789L28.5755 57.1392L28.5773 57.1372C29.0978 56.5561 29.2564 55.8289 29.044 55.0852L29.0436 55.084L27.324 49.0954C27.324 49.0952 27.3239 49.095 27.3238 49.0947C27.2492 48.8337 27.122 48.5908 26.95 48.3807C26.7779 48.1704 26.5649 47.9979 26.3244 47.8731C26.0839 47.7482 25.8208 47.6734 25.551 47.6527C25.2812 47.6321 25.0101 47.666 24.7539 47.7521L24.7533 47.7523M10.4839 65.0325L24.7533 47.7523M24.7533 47.7523C21.581 48.8204 18.2963 49.3035 14.8932 49.2005L24.7533 47.7523Z" fill="white" stroke="#9C9F62" stroke-width="2"/>
<path d="M42.4239 54.0347L42.4239 54.0347L42.427 54.0233C42.4995 53.7577 42.5188 53.4803 42.4838 53.2072C42.4488 52.9341 42.3602 52.6706 42.2229 52.4317C42.0857 52.1929 41.9026 51.9837 41.6843 51.8159C41.4663 51.6483 41.2174 51.5255 40.9519 51.4543C40.9515 51.4542 40.951 51.4541 40.9506 51.454L33.9156 49.5553C33.9151 49.5552 33.9145 49.555 33.914 49.5549C33.6488 49.4827 33.372 49.4636 33.0994 49.4985C32.8263 49.5336 32.5627 49.6223 32.324 49.7595C32.0852 49.8967 31.8759 50.0797 31.7082 50.298L32.5011 50.9074L31.7082 50.298C31.5423 50.5138 31.4204 50.7598 31.3489 51.022L31.3109 51.155L31.3108 51.155L31.3074 51.1673C31.1533 51.7334 31.1054 52.3237 31.1675 52.9053C31.2296 53.487 31.4009 54.0506 31.6745 54.563C31.9482 55.0755 32.3192 55.5273 32.7688 55.8896C33.2185 56.2519 33.7365 56.5164 34.293 56.6658L34.2934 56.6659L37.053 57.4058C37.0531 57.4058 37.0532 57.4059 37.0534 57.4059C38.1769 57.7076 39.369 57.5183 40.3657 56.9024C41.3577 56.2892 42.0783 55.3033 42.3859 54.1677L42.4239 54.0347Z" fill="white" stroke="#9C9F62" stroke-width="2"/>
<path d="M44.3013 63.3788C43.9693 62.0311 43.5722 60.6961 43.1098 59.3737C42.9998 59.066 42.9556 58.7235 43.0273 58.3692C43.0993 58.013 43.2747 57.7132 43.4976 57.4717L43.498 57.4713C45.6497 55.1426 47.9936 53.0676 50.5293 51.2475L50.5301 51.247C52.0808 50.1362 53.6257 49.7195 55.1832 49.8143C56.7042 49.9068 58.1613 50.483 59.564 51.2128L59.5703 51.2161L59.5703 51.2162C59.8775 51.3788 60.1746 51.6293 60.3562 52.0015C60.5385 52.3751 60.5525 52.7651 60.4839 53.1118C60.4836 53.1132 60.4833 53.1146 60.483 53.1161L59.6512 57.4493C63.4731 58.3399 67.349 58.8402 71.2801 58.9503L44.3013 63.3788ZM44.3013 63.3788C44.6646 64.8589 45.281 66.0003 46.1376 66.7953C47.0032 67.5986 48.0438 67.9825 49.1263 68.0611C51.1583 68.2086 53.3593 67.2889 55.1829 66.0855L57.4371 67.9222C57.4379 67.9229 57.4387 67.9236 57.4395 67.9242C57.8497 68.2606 58.376 68.4183 58.9022 68.3661C59.429 68.3138 59.9131 68.0555 60.2509 67.6499L60.2509 67.6499L60.2555 67.6442L63.6338 63.5263C63.634 63.5261 63.6342 63.5258 63.6344 63.5256C63.7209 63.4211 63.8157 63.3611 63.944 63.3278L63.944 63.3278L63.9509 63.3259C64.9515 63.0581 66.0043 63.3124 67.1714 63.8919C67.7496 64.179 68.3244 64.5299 68.9063 64.9024C69.0706 65.0076 69.2381 65.1162 69.4068 65.2256C69.8171 65.4917 70.2341 65.7622 70.6289 65.9981C71.9055 66.7632 73.1772 66.8819 74.2126 66.303C75.2021 65.7497 75.718 64.6981 75.8292 63.6685C75.9418 62.6248 75.6616 61.4645 74.8948 60.5441C74.1111 59.6033 72.8882 58.9949 71.2804 58.9504L44.3013 63.3788Z" fill="white" stroke="#9C9F62" stroke-width="2"/>
<path d="M81.1011 68.4457L81.1011 68.4457L81.1101 68.4441C83.589 67.9968 85.9619 68.2295 88.2509 69.1384C88.8011 69.3599 89.3816 69.3625 89.9343 69.1342L89.9357 69.1336C90.9021 68.7327 91.6097 68.0956 92.0067 67.2523C92.3952 66.427 92.4375 65.5088 92.2814 64.6134C91.9738 62.8485 90.8555 60.9219 89.4246 59.2243C87.9791 57.5092 86.1261 55.9223 84.2086 54.8627C82.3224 53.8204 80.2063 53.1986 78.3166 53.7033C77.713 53.8619 77.1968 54.2509 76.8766 54.7856C76.5563 55.3206 76.4572 55.9594 76.5984 56.5661C76.5985 56.5665 76.5985 56.5668 76.5986 56.5671L79.0273 67.061C79.0275 67.0619 79.0276 67.0627 79.0278 67.0635C79.1199 67.4676 79.3285 67.9108 79.7653 68.202C80.2026 68.4935 80.6927 68.5155 81.1011 68.4457Z" fill="white" stroke="#9C9F62" stroke-width="2"/>
<path d="M111.192 59.8587L111.192 59.8587L111.19 59.8551C110.834 59.2635 110.277 58.8187 109.619 58.6082L102.733 56.3694C102.733 56.3693 102.732 56.3693 102.732 56.3692C102.156 56.1814 101.568 56.2244 101.026 56.4951C98.3724 57.8184 96.2564 59.7563 94.6927 62.2927C94.4913 62.6159 94.3492 63.0232 94.408 63.4802C94.467 63.9382 94.7085 64.2967 94.9871 64.5583C94.9875 64.5587 94.988 64.5591 94.9884 64.5595L97.821 67.2326C98.068 67.4712 98.4203 67.6921 98.8717 67.7139C99.3266 67.7358 99.7005 67.5468 99.9697 67.3287L106.203 62.3443C106.236 62.3181 106.258 62.3071 106.267 62.3031C106.267 62.3031 106.268 62.303 106.268 62.3029C106.277 62.3049 106.297 62.3108 106.331 62.3273L106.331 62.3273L106.335 62.3295L109.132 63.6881C109.133 63.6884 109.134 63.6887 109.134 63.6889C109.446 63.8413 109.849 63.9385 110.282 63.8192C110.712 63.7011 111.008 63.4156 111.199 63.1327C111.531 62.6484 111.713 62.0996 111.702 61.5068C111.692 60.9242 111.496 60.3704 111.192 59.8587Z" fill="white" stroke="#9C9F62" stroke-width="2"/>
<path d="M36.5078 60.1242L36.5092 60.1227C36.5176 60.1309 36.5192 60.1308 36.5131 60.1271C36.5129 60.127 36.5127 60.1269 36.5125 60.1268L36.4813 60.1586L36.6524 61.09L36.4756 60.1645L36.5078 60.1242ZM36.5078 60.1242L36.4802 60.1526M36.5078 60.1242C36.5014 60.1208 36.4929 60.1171 36.4827 60.1141C36.4791 60.113 36.4757 60.1121 36.4726 60.1115M36.4802 60.1526L36.4647 60.1078C36.4664 60.1075 36.468 60.1071 36.4697 60.1068C36.4703 60.1067 36.471 60.1066 36.4717 60.1065L36.4726 60.1115M36.4802 60.1526L36.4726 60.1115M36.4802 60.1526L36.4726 60.1115M41.9728 63.6516L41.9727 63.6513C41.5954 62.3512 40.9571 61.2895 39.9632 60.6421C38.9654 59.9922 37.769 59.8631 36.4892 60.1031C35.1882 58.8325 33.9466 58.157 32.7021 58.1055C31.4349 58.0532 30.417 58.658 29.6063 59.3675C28.9554 59.9372 28.3411 60.6651 27.783 61.3264C27.6621 61.4697 27.5438 61.6099 27.4283 61.7447C26.7385 62.5499 26.1249 63.1959 25.4815 63.5804C25.1032 63.8044 24.7951 64.1295 24.5916 64.5193C24.3878 64.9098 24.2974 65.3493 24.3296 65.7882C24.3619 66.2271 24.5154 66.6482 24.7721 67.005C25.0288 67.3618 25.3791 67.641 25.7843 67.8117L25.7878 67.8131L29.2637 69.2614C29.2644 69.2617 29.2652 69.262 29.2659 69.2623C29.6192 69.411 30.0101 69.481 30.4169 69.4184C30.8246 69.3557 31.1769 69.1708 31.4696 68.9223L31.4711 68.9211L36.8773 64.313L37.8846 65.3758C38.129 65.6364 38.434 65.8462 38.8017 65.9558C39.1707 66.0658 39.542 66.0568 39.8903 65.9713C39.8906 65.9712 39.8909 65.9712 39.8912 65.9711L40.7484 65.7618L40.5124 64.79L40.7496 65.7615L40.749 65.7616C41.1273 65.6696 41.5803 65.4597 41.8519 64.9926C42.124 64.5246 42.0814 64.0263 41.9728 63.6516Z" fill="white" stroke="#9C9F62" stroke-width="2"/>
<path d="M3.09341 61.8561L3.09341 61.8561C3.44185 61.3588 4.03294 60.723 4.89128 60.7715C5.74686 60.8199 6.2648 61.5149 6.55813 62.0472L3.09341 61.8561ZM3.09341 61.8561L3.09205 61.858M3.09341 61.8561L3.09205 61.858M3.09205 61.858C1.64732 63.9302 0.951982 66.2752 1.00258 68.8592L3.09205 61.858ZM10.2679 68.7769L6.55822 62.0473L1.00258 68.8595C1.00909 69.1947 1.10224 69.595 1.4075 69.9233C1.71215 70.251 2.10376 70.3732 2.43609 70.4053C2.43628 70.4053 2.43646 70.4053 2.43665 70.4053L8.78184 71.0249C8.78242 71.0249 8.783 71.025 8.78359 71.025C9.00303 71.0471 9.25741 71.0516 9.50859 70.9941C9.7656 70.9353 10.1075 70.7884 10.3385 70.4397C10.5698 70.0906 10.5714 69.718 10.5248 69.4578C10.4791 69.2033 10.3747 68.9705 10.2681 68.7772C10.268 68.7771 10.268 68.777 10.2679 68.7769Z" fill="white" stroke="#9C9F62" stroke-width="2"/>
<path d="M130.576 68.4617L130.576 68.4617L133.636 64.5718L133.64 64.5678L133.64 64.5678C133.841 64.3145 134.133 64.0732 134.532 63.9776C134.932 63.8815 135.304 63.9651 135.601 64.1066C135.602 64.1069 135.602 64.1072 135.603 64.1075L135.172 65.01L130.576 68.4617ZM130.576 68.4617L130.573 68.4661M130.576 68.4617L130.573 68.4661M130.573 68.4661C130.379 68.7152 130.209 69.0651 130.234 69.4905C130.259 69.914 130.466 70.241 130.684 70.4656C130.684 70.4658 130.684 70.466 130.685 70.4662L133.93 73.8213C133.991 73.8868 134.009 73.9344 134.004 74.0229C133.995 74.1572 133.932 74.3656 133.773 74.7059C133.731 74.796 133.67 74.9186 133.602 75.0551C133.48 75.3007 133.335 75.5913 133.239 75.8178C133.07 76.2131 132.886 76.7481 132.936 77.3252C132.992 77.9726 133.327 78.5266 133.907 78.9411C134.403 79.3018 134.984 79.4303 135.583 79.3253C135.877 79.2751 136.357 79.209 136.974 79.1242C137.235 79.0883 137.521 79.049 137.827 79.0061C138.839 78.8645 140.041 78.6883 141.209 78.4779C142.369 78.2688 143.53 78.0201 144.45 77.7279C144.906 77.5827 145.342 77.4148 145.7 77.2164C146.013 77.0432 146.466 76.7406 146.67 76.2342M130.573 68.4661L146.67 76.2342M146.67 76.2342C147.428 74.3546 147.511 72.6702 146.81 71.1875C146.127 69.7439 144.789 68.684 143.131 67.8313L146.67 76.2342Z" fill="white" stroke="#9C9F62" stroke-width="2"/>
<path d="M129.056 80.5198L129.06 80.5151C130.214 79.254 130.793 77.9271 130.874 76.5783C130.954 75.2445 130.54 73.9983 129.908 72.8932C128.661 70.716 126.438 68.8743 124.729 67.6071C124.207 67.2192 123.578 67.1171 122.957 67.3378L122.954 67.3391L115.255 70.1088C115.255 70.1088 115.255 70.1088 115.255 70.1088C115.082 70.1706 114.897 70.1913 114.713 70.1687C114.53 70.1461 114.353 70.0808 114.196 69.9774C114.196 69.9772 114.196 69.977 114.195 69.9767L107.478 65.4885L107.478 65.4885L107.468 65.4823C107.142 65.2697 106.753 65.1713 106.364 65.2055C105.977 65.2395 105.612 65.4024 105.328 65.6706C104.533 66.4064 103.634 67.143 102.68 67.9241C102.371 68.1765 102.057 68.4336 101.74 68.6967C100.456 69.7589 99.1317 70.9029 98 72.1525C95.7278 74.6612 94.1077 77.7482 95.2428 81.6213L95.2434 81.6234C95.3329 81.9264 95.5105 82.2487 95.835 82.4797C96.1591 82.7104 96.5213 82.7728 96.8359 82.7591L96.8408 82.7589L127.421 81.2789L127.425 81.2786C128.059 81.2453 128.622 80.9883 129.056 80.5198Z" fill="white" stroke="#9C9F62" stroke-width="2"/>
<path d="M3.68543 74.3489L3.68543 74.3489C3.73765 74.029 3.8798 73.6588 4.21073 73.3801C4.54341 73.1 4.93468 73.0236 5.26277 73.0302L5.27537 73.0305L5.27537 73.0306C8.22754 73.1281 10.0561 72.3811 11.6373 71.1911C12.454 70.5764 13.219 69.832 14.0552 68.9711C14.2663 68.7538 14.4828 68.5281 14.7053 68.2961C15.3498 67.6242 16.0456 66.899 16.8115 66.1671C17.1298 65.8624 17.5442 65.6755 17.9854 65.6409C18.4242 65.6066 18.8622 65.7253 19.2236 65.9792L26.5482 71.0055L26.5539 71.0094L26.5539 71.0094C26.8289 71.2009 27.2468 71.5819 27.2692 72.1935C27.2915 72.8051 26.9026 73.2155 26.6424 73.4266L26.6376 73.4304L26.6376 73.4304L23.5176 75.9304L23.5149 75.9326C23.4932 75.9498 23.4817 75.9625 23.4761 75.9693C23.4709 75.9758 23.4693 75.9791 23.469 75.9798C23.4687 75.9804 23.4672 75.9835 23.4657 75.9911C23.4641 75.999 23.4618 76.0146 23.4622 76.0402C23.4622 76.0409 23.4622 76.0415 23.4622 76.0422L23.582 81.1741C23.582 81.1746 23.582 81.1751 23.582 81.1756L23.5821 81.1767L3.68543 74.3489ZM3.68543 74.3489L3.68494 74.352M3.68543 74.3489L3.68494 74.352M21.8351 82.98C21.8354 82.98 21.8357 82.98 21.836 82.98L21.8223 81.9801L21.8351 82.98ZM21.8351 82.98C21.4507 82.9852 21.0108 82.9968 20.5272 83.0095M21.8351 82.98L20.5272 83.0095M3.68494 74.352C3.29388 76.7946 3.95195 78.681 5.35162 80.0409M3.68494 74.352L5.35162 80.0409M5.35162 80.0409C6.69349 81.3446 8.61833 82.0678 10.6014 82.4826M5.35162 80.0409L10.6014 82.4826M10.6014 82.4826C13.9467 83.1824 17.888 83.0788 20.5272 83.0095M10.6014 82.4826L20.5272 83.0095" fill="white" stroke="#9C9F62" stroke-width="2"/>
<path d="M84.3161 70.3237C83.5722 70.3881 82.7994 70.487 82.0366 70.5845C81.9146 70.6001 81.7929 70.6157 81.6716 70.6311C80.7811 70.7441 79.9016 70.849 79.0352 70.9019C77.293 71.0081 75.7058 70.8948 74.3449 70.2791L84.3161 70.3237ZM84.3161 70.3237C85.45 70.2243 86.3661 70.9154 86.9441 71.6774C87.5392 72.4621 87.9332 73.5048 88.0121 74.5592C88.0913 75.6182 87.8561 76.7846 87.0628 77.7098C86.2566 78.6499 85.0011 79.1939 83.3401 79.2396C77.3995 79.4044 71.5217 80.1527 65.7056 81.4848L84.3161 70.3237ZM61.4692 71.1643C61.5336 73.0449 62.7595 74.8015 64.6268 76.0591L74.3447 70.2789C71.8344 69.1421 69.3521 67.8503 66.8979 66.4031C66.2971 66.0364 65.6184 66.0036 64.9842 66.3063C62.657 67.3984 61.4004 69.1588 61.4692 71.1643Z" fill="white" stroke="#9C9F62" stroke-width="2"/>
<path d="M61.2524 75.7142L61.2533 75.7153C61.6453 76.2052 61.7982 76.797 61.6866 77.4171L61.6845 77.429L61.6844 77.429L60.9663 81.1589C60.966 81.1608 60.9656 81.1628 60.9652 81.1647C60.9038 81.4973 60.7646 81.8254 60.5152 82.102C60.2648 82.3798 59.9514 82.5524 59.6268 82.6487C58.1601 83.0838 56.6878 83.338 55.2113 83.4088C45.8339 83.882 36.4599 84.3852 27.0892 84.9184L27.085 84.9186C26.7454 84.9365 26.3023 84.876 25.9354 84.5519C25.5651 84.2248 25.4524 83.7886 25.4339 83.4435L25.4338 83.442L25.1641 78.267C25.12 77.5453 25.3842 76.899 25.9309 76.42L35.7943 67.6459C35.795 67.6453 35.7957 67.6447 35.7963 67.6441C36.08 67.39 36.4449 67.1888 36.8845 67.1511C37.3248 67.1134 37.7193 67.25 38.0424 67.452L38.0491 67.4561L38.0491 67.4561L45.1032 71.9424C45.2087 72.0069 45.2992 72.0236 45.4296 71.9951C47.5459 71.4968 49.157 70.9643 50.2949 70.4108L61.2524 75.7142ZM61.2524 75.7142C61.0602 75.4745 60.8661 75.229 60.6698 74.9806M61.2524 75.7142L60.6698 74.9806M60.6698 74.9806C59.4972 73.4965 58.2445 71.9112 56.8153 70.8861M60.6698 74.9806L56.8153 70.8861M56.8153 70.8861C55.9514 70.2665 54.9753 69.8107 53.8569 69.6911M56.8153 70.8861L53.8569 69.6911M53.8569 69.6911C52.7344 69.5711 51.5527 69.7987 50.295 70.4107L53.8569 69.6911Z" fill="white" stroke="#9C9F62" stroke-width="2"/>
<path d="M90.3903 76.1071L90.3903 76.1071L90.3853 76.1111C89.7427 76.6284 89.2556 77.2562 89.0425 78.0108C88.8273 78.7728 88.9248 79.5467 89.2405 80.2876C89.4 80.6709 89.6872 80.9874 90.0534 81.1832C90.422 81.3805 90.8478 81.4432 91.2576 81.3607C91.6674 81.2782 92.0358 81.0556 92.2995 80.7311C92.5607 80.4096 92.7027 80.0082 92.7024 79.5946L92.7323 77.2528L92.7323 77.2528L92.7323 77.2508C92.7346 77.0457 92.7191 76.8029 92.6445 76.5674C92.5699 76.3321 92.3942 75.9824 91.9945 75.7881C91.5957 75.5943 91.2129 75.6715 90.9828 75.757C90.7519 75.8428 90.551 75.9794 90.3903 76.1071Z" fill="white" stroke="#9C9F62" stroke-width="2"/>
</svg>
