<svg width="224" height="98" viewBox="0 0 224 98" fill="none" xmlns="http://www.w3.org/2000/svg">
<path d="M197.454 4.5C195.047 5.26 192.567 5.48 190.014 5.16C189.832 5.13745 189.647 5.15755 189.475 5.21872C189.302 5.27989 189.146 5.38044 189.019 5.51241C188.892 5.64437 188.797 5.80414 188.742 5.97903C188.688 6.15392 188.674 6.33914 188.704 6.52L189.074 8.71001C189.167 9.28334 189.5 9.57666 190.074 9.59L197.434 9.81C197.807 9.82333 197.98 9.64667 197.954 9.28L197.704 4.75" stroke="#9C9F62" stroke-width="2"/>
<path d="M197.704 4.75L199.324 2.91C200.45 1.63667 200.164 1 198.464 1H188.324C187.87 1 187.664 1.22666 187.704 1.67999L187.874 3.36C187.907 3.70667 188.097 3.88333 188.444 3.89C189.684 3.92 197.444 3.52 197.454 4.5" stroke="#9C9F62" stroke-width="2"/>
<path d="M197.704 4.75L197.454 4.5" stroke="#9C9F62" stroke-width="2"/>
<path d="M218.359 1.72059C218.358 1.54556 218.287 1.37808 218.163 1.25497C218.039 1.13185 217.87 1.06319 217.695 1.0641L207.776 1.11599C207.6 1.11692 207.433 1.18734 207.31 1.31175C207.187 1.43616 207.118 1.60437 207.119 1.7794L207.129 3.61939C207.129 3.79442 207.2 3.96192 207.324 4.08503C207.449 4.20815 207.617 4.27679 207.792 4.27589L217.712 4.22399C217.887 4.22307 218.054 4.15266 218.177 4.02825C218.301 3.90384 218.369 3.73561 218.368 3.56059L218.359 1.72059Z" stroke="#9C9F62" stroke-width="2"/>
<path d="M217.451 7.00687C217.439 6.54555 217.244 6.10792 216.909 5.79025C216.574 5.47259 216.127 5.30091 215.666 5.31297L209.728 5.46848C209.267 5.48057 208.829 5.6754 208.511 6.01013C208.194 6.34486 208.022 6.79207 208.034 7.25337L208.057 8.11307C208.069 8.57439 208.263 9.01201 208.598 9.32968C208.933 9.64735 209.38 9.81904 209.841 9.80698L215.779 9.65147C216.241 9.63938 216.678 9.44453 216.996 9.1098C217.314 8.77507 217.485 8.32786 217.473 7.86656L217.451 7.00687Z" stroke="#9C9F62" stroke-width="2"/>
<path d="M196.744 14.71L189.724 14.97C189.344 14.9833 189.157 15.1766 189.164 15.5499L189.254 24.69C189.254 25.01 189.417 25.18 189.744 25.2C190.734 25.25 196.934 24.75 196.744 26.06C196.684 26.4533 196.457 26.6366 196.064 26.6099L189.664 26.19C189.417 26.17 189.294 26.2866 189.294 26.54L189.254 34.16" stroke="#9C9F62" stroke-width="2"/>
<path d="M189.254 34.16L188.974 41.55C188.965 41.7335 188.995 41.9167 189.061 42.0883C189.127 42.2599 189.228 42.4162 189.357 42.5475C189.487 42.6787 189.642 42.7822 189.813 42.8515C189.985 42.9207 190.169 42.9543 190.354 42.95L197.154 42.76C197.48 42.7534 197.647 42.5867 197.654 42.26L197.704 35.5" stroke="#9C9F62" stroke-width="2"/>
<path d="M197.704 35.5L197.674 23.57C197.674 23.27 197.524 23.1167 197.224 23.11L190.474 22.97C190.154 22.9633 189.994 22.8 189.994 22.48V22.11C189.994 21.69 190.207 21.4933 190.634 21.52L197.344 22C197.597 22.0133 197.724 21.8933 197.724 21.64L197.704 14.75" stroke="#9C9F62" stroke-width="2"/>
<path d="M197.704 14.75L197.944 12.25C197.977 11.87 197.804 11.6633 197.424 11.63L189.594 11.02C189.194 10.9866 188.994 11.17 188.994 11.57V13.27C188.994 13.61 189.167 13.78 189.514 13.78H196.384C196.704 13.78 196.884 13.9433 196.924 14.27C196.944 14.4833 196.884 14.63 196.744 14.71" stroke="#9C9F62" stroke-width="2"/>
<path d="M197.704 14.75L196.744 14.71" stroke="#9C9F62" stroke-width="2"/>
<path d="M217.378 11.7078C217.378 11.6487 217.366 11.5902 217.343 11.5358C217.32 11.4814 217.286 11.432 217.244 11.3905C217.202 11.349 217.152 11.3162 217.097 11.2939C217.043 11.2717 216.984 11.2605 216.925 11.2609L208.585 11.3191C208.526 11.3195 208.468 11.3315 208.413 11.3545C208.359 11.3775 208.309 11.411 208.268 11.4531C208.226 11.4952 208.194 11.545 208.171 11.5998C208.149 11.6546 208.138 11.7132 208.138 11.7723L208.149 13.3122C208.149 13.3713 208.161 13.4297 208.184 13.4842C208.207 13.5386 208.241 13.588 208.283 13.6295C208.325 13.671 208.375 13.7038 208.43 13.726C208.484 13.7482 208.543 13.7595 208.602 13.7591L216.942 13.7009C217.001 13.7005 217.059 13.6884 217.114 13.6654C217.168 13.6424 217.218 13.6089 217.259 13.5669C217.301 13.5248 217.334 13.4749 217.356 13.4202C217.378 13.3654 217.389 13.3068 217.389 13.2477L217.378 11.7078Z" stroke="#9C9F62" stroke-width="2"/>
<path d="M216.244 22.71C213.81 23.1633 211.344 23.1966 208.844 22.81C208.444 22.7433 208.244 22.9133 208.244 23.32V24.6C208.244 25 208.444 25.2033 208.844 25.21L216.564 25.33C216.844 25.3366 216.98 25.2 216.974 24.92L216.954 22.75" stroke="#9C9F62" stroke-width="2"/>
<path d="M216.954 22.75L217.234 15.54C217.247 15.1467 217.054 14.9533 216.654 14.96L208.894 15.1C208.407 15.1133 208.16 15.3633 208.154 15.85L208.124 19.6C208.121 19.8563 208.17 20.1105 208.269 20.3474C208.367 20.5842 208.513 20.7988 208.697 20.9782C208.881 21.1576 209.099 21.298 209.339 21.3911C209.58 21.4843 209.836 21.5281 210.094 21.52L215.594 21.36C215.974 21.3467 216.25 21.5067 216.424 21.84C216.584 22.14 216.524 22.43 216.244 22.71" stroke="#9C9F62" stroke-width="2"/>
<path d="M216.954 22.75L216.244 22.71" stroke="#F39324" stroke-width="2"/>
<path d="M217.199 26.791C217.199 26.7556 217.192 26.7205 217.178 26.6879C217.164 26.6552 217.144 26.6256 217.119 26.6008C217.093 26.5759 217.063 26.5563 217.031 26.543C216.998 26.5297 216.962 26.523 216.927 26.5233L208.487 26.597C208.416 26.5977 208.347 26.6267 208.297 26.6778C208.247 26.7288 208.219 26.7977 208.22 26.8693L208.288 34.729C208.289 34.7645 208.296 34.7996 208.31 34.8322C208.324 34.8648 208.344 34.8944 208.369 34.9193C208.394 34.9441 208.424 34.9638 208.457 34.9771C208.49 34.9903 208.525 34.997 208.561 34.9967L217 34.923C217.072 34.9224 217.14 34.8934 217.19 34.8423C217.241 34.7912 217.268 34.7223 217.268 34.6507L217.199 26.791Z" stroke="#9C9F62" stroke-width="2"/>
<path d="M93.0834 51.82C99.6034 51.22 107.843 51.81 112.483 51.78C133.577 51.6666 154.67 51.5566 175.763 51.45C177.233 51.44 178.894 51.79 180.414 51.91C180.84 51.9433 181.054 51.7466 181.054 51.32L180.963 27.51C180.963 27.0366 180.727 26.8 180.253 26.8L77.5135 26.73C77.4076 26.73 77.3027 26.751 77.205 26.7918C77.1073 26.8326 77.0187 26.8925 76.9443 26.9678C76.8699 27.0432 76.811 27.1325 76.7714 27.2307C76.7318 27.329 76.7121 27.4341 76.7134 27.54L76.9835 93.43C76.9835 93.6961 77.0896 93.9515 77.2787 94.1406C77.4679 94.3298 77.7247 94.4373 77.9935 94.44L91.7134 94.57C92.0601 94.5766 92.2701 94.41 92.3434 94.07C92.5634 93.09 92.6767 91.9833 92.6834 90.75C92.7967 75.5633 92.7902 62.74 92.6635 52.28C92.6635 52 92.8034 51.8466 93.0834 51.82Z" stroke="#F39324" stroke-width="2"/>
<path d="M75.1136 36.88C75.1136 36.7156 75.0483 36.5579 74.932 36.4416C74.8157 36.3253 74.6581 36.26 74.4937 36.26H44.3937C44.2292 36.26 44.0715 36.3253 43.9552 36.4416C43.8389 36.5579 43.7737 36.7156 43.7737 36.88V46.36C43.7737 46.5244 43.8389 46.6821 43.9552 46.7984C44.0715 46.9147 44.2292 46.98 44.3937 46.98H74.4937C74.6581 46.98 74.8157 46.9147 74.932 46.7984C75.0483 46.6821 75.1136 46.5244 75.1136 46.36V36.88Z" stroke="#F39324" stroke-width="2"/>
<path d="M217.316 37.5486C217.314 37.5145 217.306 37.481 217.291 37.4501C217.277 37.4193 217.256 37.3916 217.231 37.3687C217.206 37.3457 217.176 37.328 217.144 37.3165C217.112 37.305 217.078 37.2999 217.044 37.3016L208.394 37.7247C208.36 37.7263 208.326 37.7347 208.295 37.7493C208.264 37.7639 208.237 37.7844 208.214 37.8097C208.191 37.835 208.173 37.8646 208.162 37.8967C208.15 37.9289 208.145 37.963 208.147 37.9971L208.372 42.5916C208.373 42.6257 208.382 42.6591 208.396 42.69C208.411 42.7208 208.431 42.7486 208.457 42.7715C208.482 42.7944 208.511 42.8122 208.544 42.8237C208.576 42.8352 208.61 42.8402 208.644 42.8386L217.294 42.4155C217.328 42.4138 217.361 42.4054 217.392 42.3908C217.423 42.3763 217.451 42.3557 217.474 42.3304C217.497 42.3051 217.514 42.2756 217.526 42.2434C217.537 42.2113 217.542 42.1772 217.541 42.1431L217.316 37.5486Z" stroke="#9C9F62" stroke-width="2"/>
<path d="M202.794 45.45C202.974 45.0433 203.21 44.8233 203.504 44.79C203.824 44.7567 204.004 44.8967 204.044 45.21L204.634 49.36C204.7 49.82 204.97 50.0533 205.444 50.06L219.764 50.07C220.17 50.07 220.437 49.88 220.564 49.5L222.114 44.95C222.26 44.5167 222.104 44.3 221.644 44.3L184.674 44.24C184.234 44.24 184.07 44.4533 184.184 44.88L185.414 49.42C185.547 49.9333 185.877 50.1867 186.404 50.18L200.954 50.14C201.36 50.14 201.634 49.9467 201.774 49.56C202.147 48.4867 202.414 47.3767 202.574 46.23C202.607 45.9633 202.681 45.7033 202.794 45.45Z" stroke="#F39324" stroke-width="2"/>
<path d="M1.87355 60.2C26.4236 60.18 50.5735 59.97 74.4435 60.66C74.8568 60.6734 75.0668 60.4733 75.0735 60.06L75.2736 49.74C75.2936 48.8667 74.8635 48.4334 73.9835 48.44C52.9102 48.66 32.0202 48.7767 11.3135 48.79C5.7035 48.79 2.35361 54.22 1.05361 59.14C0.873608 59.8467 1.14689 60.2 1.87355 60.2Z" stroke="#9C9F62" stroke-width="2"/>
<path d="M205.374 92.7C205.372 92.7508 205.381 92.8012 205.4 92.8485C205.418 92.8958 205.446 92.9388 205.481 92.9752C205.517 93.0116 205.559 93.0404 205.606 93.0602C205.653 93.0799 205.703 93.09 205.754 93.09L219.344 93.31C219.394 93.3113 219.445 93.3025 219.492 93.284C219.539 93.2655 219.583 93.2377 219.619 93.2023C219.655 93.1669 219.684 93.1245 219.704 93.0778C219.724 93.031 219.734 92.9808 219.734 92.93L219.774 52C219.774 51.9493 219.764 51.899 219.744 51.8522C219.724 51.8055 219.695 51.7631 219.659 51.7277C219.622 51.6923 219.579 51.6645 219.532 51.646C219.485 51.6275 219.434 51.6187 219.384 51.62L205.894 51.89C205.795 51.8926 205.7 51.9338 205.631 52.0048C205.562 52.0758 205.524 52.1709 205.524 52.27L205.374 92.7Z" stroke="#F39324" stroke-width="2"/>
<path d="M188.244 66.5H186.554C186.087 66.5 185.854 66.73 185.854 67.19L185.804 92.62C185.804 92.9866 185.99 93.17 186.364 93.17L200.244 93.21C200.564 93.2166 200.724 93.06 200.724 92.74L200.794 52.26C200.794 51.9066 200.614 51.73 200.254 51.73L186.494 51.79C186.12 51.79 185.917 51.9733 185.884 52.34C185.404 57.42 188.964 60.64 188.804 65.96C188.79 66.32 188.604 66.5 188.244 66.5Z" stroke="#F39324" stroke-width="2"/>
<path d="M96.7537 63.4C123.434 63.7 150.214 62.69 176.824 63.44C178.964 63.5 182.494 62.79 185.494 63.8C185.807 63.9067 185.9 63.8067 185.774 63.5C182.964 56.82 179.464 55.22 172.484 55.08C153.317 54.7134 128.117 54.6534 96.8837 54.9C96.457 54.9067 96.2437 55.1234 96.2437 55.55L96.2537 62.9C96.2537 63.0326 96.3064 63.1598 96.4001 63.2536C96.4939 63.3473 96.6211 63.4 96.7537 63.4Z" stroke="#9C9F62" stroke-width="2"/>
<path d="M20.7836 79.8901C20.7836 79.7628 20.8341 79.6407 20.9241 79.5507C21.0141 79.4607 21.1362 79.4101 21.2635 79.4101L52.5735 79.5001C52.7008 79.5001 52.8229 79.5507 52.913 79.6407C53.003 79.7307 53.0536 79.8528 53.0536 79.9801L52.9635 93.1801C52.9635 93.3074 53.0141 93.4295 53.1041 93.5195C53.1941 93.6095 53.3162 93.6601 53.4435 93.6601L74.3535 93.8701C74.4808 93.8701 74.603 93.8195 74.693 93.7295C74.783 93.6395 74.8335 93.5174 74.8335 93.3901L75.1636 62.2101C75.1649 62.1453 75.1532 62.081 75.129 62.0209C75.1049 61.9609 75.0688 61.9063 75.0231 61.8605C74.9773 61.8148 74.9227 61.7787 74.8627 61.7546C74.8026 61.7305 74.7383 61.7187 74.6736 61.7201L13.0835 61.8101C13.0205 61.8101 12.9581 61.8225 12.8999 61.8466C12.8417 61.8707 12.7887 61.9061 12.7441 61.9507C12.6996 61.9952 12.6641 62.0482 12.64 62.1064C12.6159 62.1646 12.6035 62.227 12.6035 62.2901L12.8036 93.2201C12.806 93.3423 12.855 93.4589 12.9404 93.5462C13.0259 93.6336 13.1415 93.685 13.2635 93.6901L20.1636 93.9001C20.2274 93.9014 20.2909 93.89 20.3503 93.8664C20.4097 93.8429 20.4638 93.8078 20.5094 93.7631C20.555 93.7184 20.5913 93.665 20.6161 93.6061C20.6408 93.5472 20.6536 93.484 20.6536 93.4201L20.7836 79.8901Z" stroke="#F39324" stroke-width="2"/>
<path d="M173.79 66.5775C173.79 66.542 173.783 66.5069 173.769 66.4741C173.756 66.4413 173.736 66.4116 173.711 66.3864C173.686 66.3613 173.656 66.3414 173.623 66.3278C173.591 66.3142 173.555 66.3071 173.52 66.3071L96.6803 66.173C96.6448 66.1729 96.6097 66.1798 96.5769 66.1933C96.5441 66.2068 96.5144 66.2267 96.4893 66.2517C96.4641 66.2767 96.4442 66.3064 96.4305 66.3392C96.4169 66.3719 96.4099 66.407 96.4098 66.4425L96.3579 96.1625C96.3579 96.1979 96.3648 96.2331 96.3783 96.2658C96.3918 96.2986 96.4116 96.3284 96.4366 96.3535C96.4617 96.3786 96.4914 96.3986 96.5242 96.4122C96.5569 96.4258 96.592 96.4328 96.6274 96.4329L173.467 96.567C173.503 96.567 173.538 96.5601 173.571 96.5466C173.603 96.5331 173.633 96.5133 173.658 96.4883C173.683 96.4632 173.703 96.4335 173.717 96.4008C173.731 96.368 173.738 96.3329 173.738 96.2975L173.79 66.5775Z" stroke="#F39324" stroke-width="2"/>
<path d="M180.874 66.24H178.014C177.857 66.2387 177.701 66.2685 177.555 66.3277C177.41 66.387 177.277 66.4744 177.166 66.585C177.054 66.6957 176.966 66.8273 176.905 66.9723C176.845 67.1174 176.814 67.2729 176.814 67.43L176.794 79.38C176.787 83.5222 176.922 87.4952 177.169 90.4273C177.416 93.3594 177.756 95.0111 178.114 95.02H180.654C180.831 95.0245 181.008 94.6232 181.173 93.8392C181.339 93.0552 181.49 91.9038 181.618 90.4511C181.746 88.9983 181.849 87.2727 181.92 85.373C181.992 83.4733 182.03 81.4368 182.034 79.38L182.054 67.43C182.054 67.1162 181.93 66.815 181.709 66.5921C181.488 66.3692 181.188 66.2427 180.874 66.24Z" stroke="#F39324" stroke-width="2"/>
<path d="M93.2057 34.4353C93.2052 34.3683 93.1915 34.302 93.1654 34.2403C93.1394 34.1786 93.1014 34.1227 93.0537 34.0757C93.006 34.0286 92.9495 33.9915 92.8875 33.9663C92.8254 33.9411 92.759 33.9284 92.692 33.9288L86.6123 33.9714C86.5453 33.9718 86.4791 33.9854 86.4174 34.0115C86.3557 34.0375 86.2997 34.0755 86.2527 34.1232C86.2057 34.1709 86.1684 34.2274 86.1432 34.2894C86.118 34.3515 86.1053 34.4179 86.1057 34.4848L86.1217 36.7648C86.1222 36.8318 86.1358 36.898 86.1619 36.9597C86.1879 37.0214 86.2259 37.0774 86.2736 37.1244C86.3213 37.1714 86.3778 37.2086 86.4398 37.2338C86.5019 37.259 86.5683 37.2717 86.6353 37.2713L92.7151 37.2287C92.7821 37.2283 92.8482 37.2146 92.9099 37.1886C92.9716 37.1625 93.0277 37.1246 93.0747 37.0769C93.1218 37.0292 93.1589 36.9727 93.1841 36.9107C93.2093 36.8486 93.222 36.7822 93.2216 36.7153L93.2057 34.4353Z" stroke="#F39324" stroke-width="2"/>
<path d="M104.08 34.4073C104.078 34.288 104.028 34.1745 103.942 34.0917C103.856 34.009 103.741 33.9637 103.622 33.966L96.9228 34.0946C96.8637 34.0958 96.8055 34.1085 96.7513 34.1322C96.6971 34.1558 96.6481 34.1899 96.6071 34.2325C96.5662 34.2751 96.534 34.3253 96.5124 34.3804C96.4909 34.4354 96.4804 34.4941 96.4815 34.5532L96.5269 36.9127C96.5292 37.032 96.5788 37.1456 96.6648 37.2283C96.7507 37.3111 96.8661 37.3563 96.9854 37.354L103.684 37.2254C103.743 37.2243 103.802 37.2115 103.856 37.1879C103.91 37.1642 103.959 37.1301 104 37.0875C104.041 37.0449 104.073 36.9947 104.095 36.9397C104.116 36.8847 104.127 36.8259 104.125 36.7668L104.08 34.4073Z" stroke="#F39324" stroke-width="2"/>
<path d="M53.4663 70.8216C53.4695 70.6352 53.4361 70.4499 53.3678 70.2764C53.2994 70.1029 53.1975 69.9446 53.068 69.8104C52.9384 69.6763 52.7838 69.569 52.6128 69.4946C52.4418 69.4202 52.2578 69.3803 52.0714 69.377L46.7121 69.2835C46.5257 69.2803 46.3403 69.3138 46.1668 69.3821C45.9933 69.4505 45.835 69.5523 45.7009 69.6819C45.5668 69.8114 45.4595 69.9661 45.3851 70.1371C45.3107 70.3081 45.2708 70.4921 45.2676 70.6785L45.261 71.0584C45.2577 71.2449 45.2911 71.4302 45.3595 71.6037C45.4278 71.7772 45.5297 71.9355 45.6593 72.0696C45.7888 72.2038 45.9435 72.3111 46.1145 72.3855C46.2855 72.4598 46.4695 72.4998 46.656 72.503L52.0151 72.5965C52.2016 72.5998 52.3869 72.5663 52.5604 72.498C52.7339 72.4296 52.8922 72.3278 53.0263 72.1982C53.1605 72.0687 53.2678 71.914 53.3421 71.743C53.4165 71.572 53.4564 71.388 53.4597 71.2015L53.4663 70.8216Z" stroke="#F39324" stroke-width="2"/>
<path d="M56.2537 69.8L56.1936 71.8C56.191 71.8959 56.2072 71.9914 56.2415 72.0809C56.2757 72.1705 56.3273 72.2525 56.3932 72.3221C56.4592 72.3918 56.5382 72.4478 56.6258 72.4869C56.7133 72.526 56.8078 72.5474 56.9037 72.55L60.2437 72.64C61.2138 72.6672 62.1489 72.5415 62.8442 72.2904C63.5394 72.0393 63.9383 71.6832 63.9537 71.3L63.9737 70.74C63.9831 70.3558 63.606 69.9767 62.9253 69.686C62.2447 69.3954 61.3161 69.217 60.3437 69.19L57.0037 69.09C56.9078 69.0873 56.8124 69.1036 56.7228 69.1379C56.6332 69.1721 56.5513 69.2237 56.4816 69.2896C56.412 69.3555 56.3559 69.4346 56.3168 69.5221C56.2777 69.6097 56.2563 69.7041 56.2537 69.8Z" stroke="#F39324" stroke-width="2"/>
<path d="M99.9436 72.4099L106.144 72.3599C106.504 72.3533 106.734 72.1766 106.834 71.8299C107.107 70.8899 106.94 70.0033 106.334 69.17C106.258 69.0645 106.156 68.9809 106.038 68.9273C105.92 68.8736 105.789 68.8517 105.659 68.8638C105.529 68.8759 105.404 68.9215 105.297 68.9962C105.189 69.0709 105.102 69.1721 105.044 69.29L104.594 70.2199C104.414 70.5866 104.157 70.6599 103.824 70.4399C102.53 69.5799 101.154 69.4666 99.6936 70.1C99.3936 70.2333 99.2437 70.4633 99.2437 70.79V71.7099C99.2437 71.8019 99.2618 71.8929 99.297 71.9778C99.3322 72.0627 99.3837 72.1399 99.4487 72.2049C99.5137 72.2699 99.5909 72.3215 99.6758 72.3567C99.7607 72.3918 99.8517 72.4099 99.9436 72.4099Z" stroke="#F39324" stroke-width="2"/>
</svg>
