<svg width="217" height="107" viewBox="0 0 217 107" fill="none" xmlns="http://www.w3.org/2000/svg">
<path d="M193.136 5.27272C193.292 5.15954 193.409 4.99444 193.479 4.78687C193.549 4.5793 193.571 4.33333 193.544 4.06298C193.516 3.79263 193.441 3.5032 193.32 3.21123C193.2 2.91926 193.038 2.63045 192.843 2.36132C192.649 2.09218 192.425 1.84798 192.185 1.64266C191.945 1.43733 191.694 1.27491 191.446 1.16464C191.197 1.05438 190.957 0.998441 190.738 1.00003C190.519 1.00163 190.325 1.06072 190.169 1.17392C190.013 1.28711 189.896 1.45219 189.826 1.65976C189.756 1.86733 189.734 2.11332 189.762 2.38367C189.789 2.65402 189.865 2.94344 189.985 3.23542C190.105 3.52739 190.267 3.81618 190.462 4.08531C190.657 4.35445 190.88 4.59866 191.12 4.80399C191.36 5.00932 191.611 5.17174 191.86 5.282C192.108 5.39226 192.348 5.44819 192.567 5.4466C192.786 5.445 192.98 5.38593 193.136 5.27272Z" stroke="#9C9F62" stroke-width="2"/>
<path d="M188.831 2.81295C188.827 2.56104 188.723 2.32103 188.542 2.1457C188.361 1.97038 188.118 1.87409 187.866 1.87805L171.868 2.12934C171.616 2.13332 171.376 2.2372 171.201 2.41813C171.026 2.59907 170.93 2.84224 170.933 3.09416L171.014 8.19355C171.018 8.44547 171.121 8.68548 171.302 8.8608C171.483 9.03613 171.726 9.1324 171.978 9.12844L187.976 8.87715C188.228 8.87317 188.468 8.76929 188.644 8.58836C188.819 8.40743 188.915 8.16426 188.911 7.91235L188.831 2.81295Z" stroke="#F39324" stroke-width="2"/>
<path d="M133.733 68.0232L140.372 67.5232C140.772 67.4966 141.089 67.3233 141.323 67.0033L183.122 10.8132C183.179 10.7372 183.212 10.6463 183.218 10.5517C183.224 10.4571 183.203 10.3628 183.156 10.2803C183.109 10.1977 183.04 10.1304 182.956 10.0866C182.872 10.0427 182.777 10.0242 182.682 10.0332L175.682 10.6732C175.362 10.6999 175.082 10.8232 174.842 11.0432C174.396 11.4432 173.989 11.8799 173.622 12.3532C164.642 24.0199 155.799 35.7899 147.092 47.6633C143.672 52.3033 137.002 59.9732 133.122 67.0732C133.066 67.1744 133.038 67.2891 133.042 67.405C133.045 67.5208 133.08 67.6336 133.143 67.7311C133.205 67.8286 133.293 67.9073 133.397 67.9588C133.501 68.0102 133.617 68.0325 133.733 68.0232Z" stroke="#F39324" stroke-width="2"/>
<path d="M172.162 10.7032C169.582 11.0832 153.222 34.8432 150.422 38.6032C144.382 46.6932 135.362 57.7632 128.252 67.7032C128.019 68.0232 128.099 68.1499 128.492 68.0832C132.442 67.4332 138.082 57.0332 140.762 53.6532C151.702 39.7932 162.102 25.5632 172.512 11.2832C172.852 10.8166 172.736 10.6232 172.162 10.7032Z" stroke="#F39324"/>
<path d="M194.09 12.648C194.162 12.5755 194.213 12.4828 194.239 12.3753C194.265 12.2679 194.267 12.1477 194.243 12.0216C194.219 11.8956 194.171 11.7662 194.1 11.6408C194.03 11.5154 193.939 11.3965 193.833 11.2908C193.727 11.1851 193.608 11.0948 193.482 11.0249C193.357 10.955 193.227 10.907 193.101 10.8836C192.975 10.8602 192.855 10.8618 192.747 10.8884C192.64 10.915 192.547 10.9661 192.475 11.0386C192.403 11.1112 192.352 11.2038 192.326 11.3113C192.3 11.4188 192.298 11.5389 192.322 11.665C192.346 11.791 192.395 11.9204 192.465 12.0458C192.535 12.1712 192.626 12.2901 192.732 12.3958C192.838 12.5015 192.957 12.5918 193.083 12.6617C193.208 12.7316 193.338 12.7796 193.464 12.803C193.59 12.8264 193.71 12.8248 193.818 12.7982C193.925 12.7716 194.018 12.7206 194.09 12.648Z" stroke="#9C9F62" stroke-width="2"/>
<path d="M197.495 23.2204C197.706 23.0874 197.87 22.8842 197.978 22.6223C198.085 22.3604 198.134 22.0449 198.122 21.694C198.109 21.343 198.035 20.9634 197.905 20.5768C197.774 20.1902 197.589 19.8041 197.36 19.4408C197.132 19.0774 196.863 18.7437 196.571 18.4589C196.279 18.1741 195.968 17.9436 195.657 17.7807C195.346 17.6177 195.041 17.5255 194.758 17.5093C194.475 17.4931 194.221 17.5532 194.01 17.6862C193.799 17.8191 193.635 18.0223 193.527 18.2842C193.42 18.5461 193.371 18.8615 193.384 19.2125C193.396 19.5635 193.47 19.9431 193.6 20.3297C193.731 20.7163 193.916 21.1024 194.145 21.4658C194.374 21.8291 194.642 22.1628 194.934 22.4476C195.226 22.7324 195.537 22.9629 195.848 23.1258C196.159 23.2887 196.465 23.381 196.747 23.3972C197.03 23.4134 197.284 23.3533 197.495 23.2204Z" stroke="#9C9F62" stroke-width="2"/>
<path d="M194.771 26.9297C194.83 26.7198 194.815 26.4911 194.725 26.2567C194.635 26.0223 194.473 25.7867 194.249 25.5635C194.024 25.3402 193.741 25.1336 193.415 24.9554C193.09 24.7773 192.729 24.6311 192.352 24.5252C191.975 24.4193 191.59 24.3558 191.22 24.3382C190.849 24.3207 190.5 24.3495 190.192 24.423C189.884 24.4966 189.623 24.6133 189.424 24.7667C189.225 24.9201 189.093 25.107 189.034 25.3169C188.975 25.5267 188.991 25.7554 189.08 25.9898C189.17 26.2242 189.332 26.4598 189.556 26.6831C189.781 26.9064 190.064 27.113 190.39 27.2911C190.715 27.4693 191.077 27.6155 191.453 27.7214C191.83 27.8272 192.215 27.8908 192.585 27.9083C192.956 27.9258 193.305 27.897 193.613 27.8235C193.922 27.75 194.182 27.6332 194.381 27.4798C194.58 27.3265 194.712 27.1395 194.771 26.9297Z" stroke="#9C9F62" stroke-width="2"/>
<path d="M196.736 31.2734C196.81 31.3196 196.916 31.3113 197.05 31.2489C197.184 31.1865 197.343 31.0714 197.517 30.91C197.691 30.7485 197.877 30.544 198.065 30.3081C198.252 30.0722 198.438 29.8095 198.611 29.535C198.784 29.2605 198.94 28.9796 199.072 28.7084C199.204 28.4371 199.308 28.1808 199.378 27.9541C199.448 27.7273 199.484 27.5346 199.482 27.3869C199.48 27.2392 199.442 27.1394 199.369 27.0932C199.295 27.0471 199.189 27.0553 199.055 27.1177C198.921 27.1801 198.762 27.2953 198.588 27.4567C198.414 27.6181 198.228 27.8226 198.04 28.0585C197.852 28.2945 197.667 28.5571 197.494 28.8316C197.321 29.1061 197.164 29.387 197.033 29.6582C196.901 29.9295 196.797 30.1858 196.727 30.4126C196.656 30.6393 196.621 30.832 196.623 30.9797C196.624 31.1275 196.663 31.2272 196.736 31.2734Z" stroke="#9C9F62" stroke-width="2"/>
<path d="M197.672 35.8233L196.802 33.0833C196.775 32.9977 196.731 32.9183 196.673 32.8498C196.615 32.7813 196.544 32.7249 196.464 32.684C196.384 32.6431 196.297 32.6184 196.207 32.6114C196.118 32.6044 196.028 32.6153 195.942 32.6433L195.822 32.6833C195.235 32.8707 194.734 33.2487 194.43 33.7342C194.126 34.2198 194.045 34.7733 194.202 35.2733L194.292 35.5433C194.452 36.0436 194.838 36.449 195.367 36.6703C195.896 36.8916 196.524 36.9107 197.112 36.7233L197.232 36.6833C197.318 36.6561 197.397 36.6121 197.466 36.5541C197.534 36.496 197.591 36.425 197.632 36.345C197.673 36.265 197.697 36.1778 197.704 36.0882C197.711 35.9987 197.7 35.9086 197.672 35.8233Z" stroke="#9C9F62" stroke-width="2"/>
<path d="M102.036 41.6636C102.036 41.4824 102 41.303 101.93 41.1357C101.861 40.9684 101.759 40.8164 101.63 40.6885C101.502 40.5606 101.35 40.4592 101.182 40.3902C101.014 40.3211 100.835 40.2857 100.654 40.286L92.3738 40.3004C92.1925 40.3007 92.0131 40.3368 91.8458 40.4064C91.6785 40.476 91.5266 40.578 91.3987 40.7063C91.2707 40.8347 91.1693 40.987 91.1003 41.1545C91.0312 41.3221 90.9958 41.5016 90.9962 41.6828L91.0287 60.3428C91.0291 60.5241 91.0651 60.7035 91.1347 60.8708C91.2043 61.0381 91.3063 61.19 91.4346 61.3179C91.563 61.4459 91.7153 61.5472 91.8828 61.6163C92.0504 61.6854 92.2299 61.7207 92.4111 61.7204L100.691 61.706C100.872 61.7057 101.052 61.6697 101.219 61.6001C101.386 61.5304 101.538 61.4285 101.666 61.3001C101.794 61.1718 101.896 61.0195 101.965 60.8519C102.034 60.6844 102.069 60.5049 102.069 60.3236L102.036 41.6636Z" stroke="#F39324" stroke-width="2"/>
<path d="M116.899 41.6043C116.899 41.4376 116.865 41.2726 116.801 41.1187C116.737 40.9648 116.643 40.8251 116.524 40.7076C116.406 40.5901 116.266 40.497 116.111 40.4338C115.957 40.3705 115.792 40.3382 115.625 40.3388L107.245 40.368C106.908 40.3692 106.586 40.5042 106.348 40.7432C106.111 40.9822 105.978 41.3057 105.979 41.6425L106.046 60.6423C106.046 60.8091 106.08 60.9742 106.144 61.128C106.208 61.2819 106.302 61.4216 106.421 61.5391C106.539 61.6566 106.68 61.7497 106.834 61.813C106.988 61.8763 107.153 61.9085 107.32 61.908L115.7 61.8787C116.037 61.8775 116.359 61.7425 116.597 61.5035C116.834 61.2646 116.967 60.9411 116.966 60.6043L116.899 41.6043Z" stroke="#F39324" stroke-width="2"/>
<path d="M199.132 45.8553C199.325 45.7038 199.463 45.4851 199.537 45.2119C199.611 44.9386 199.62 44.6161 199.563 44.2627C199.507 43.9092 199.386 43.5319 199.208 43.1522C199.029 42.7724 198.797 42.3977 198.524 42.0494C198.251 41.7011 197.942 41.3861 197.616 41.1224C197.29 40.8586 196.952 40.6513 196.623 40.5121C196.293 40.373 195.977 40.3049 195.694 40.3116C195.411 40.3183 195.166 40.3998 194.973 40.5513C194.78 40.7028 194.642 40.9215 194.568 41.1947C194.494 41.468 194.485 41.7905 194.541 42.1439C194.598 42.4974 194.719 42.8747 194.897 43.2545C195.075 43.6342 195.308 44.0089 195.581 44.3572C195.854 44.7055 196.162 45.0205 196.489 45.2843C196.815 45.548 197.152 45.7554 197.482 45.8945C197.812 46.0336 198.127 46.1017 198.41 46.095C198.693 46.0883 198.939 46.0068 199.132 45.8553Z" stroke="#9C9F62" stroke-width="2"/>
<path d="M196.963 51.2742C196.853 50.9335 196.5 50.6867 195.981 50.5881C195.463 50.4896 194.821 50.5473 194.198 50.7487C193.889 50.8484 193.594 50.9803 193.33 51.137C193.065 51.2937 192.837 51.472 192.657 51.6618C192.477 51.8516 192.35 52.0491 192.282 52.2431C192.215 52.4372 192.208 52.6239 192.262 52.7926C192.372 53.1333 192.725 53.38 193.244 53.4786C193.763 53.5771 194.404 53.5194 195.027 53.3181C195.336 53.2184 195.631 53.0864 195.895 52.9297C196.16 52.7731 196.388 52.5947 196.568 52.405C196.748 52.2152 196.875 52.0176 196.943 51.8236C197.011 51.6296 197.017 51.4429 196.963 51.2742Z" stroke="#9C9F62" stroke-width="2"/>
<path d="M201.062 54.3033C201.262 54.1766 201.306 53.9566 201.192 53.6433C201.171 53.5807 201.134 53.5243 201.086 53.4789C201.037 53.4336 200.978 53.4006 200.915 53.3829C200.851 53.3652 200.783 53.3633 200.719 53.3773C200.654 53.3913 200.593 53.4208 200.542 53.4633L199.532 54.3333C199.463 54.3917 199.412 54.468 199.384 54.5538C199.355 54.6397 199.351 54.7316 199.372 54.8196C199.393 54.9076 199.437 54.9881 199.501 55.0523C199.564 55.1165 199.645 55.1618 199.732 55.1833C200.212 55.3033 200.536 55.2133 200.702 54.9133C200.909 54.5333 201.029 54.33 201.062 54.3033Z" stroke="#9C9F62" stroke-width="2"/>
<path d="M10.3525 65.2732L33.8725 65.3833C34.5192 65.3833 34.8392 65.7099 34.8325 66.3632L34.6725 88.7032C34.6725 89.0632 34.8525 89.2432 35.2125 89.2432L60.4125 89.2533C60.7725 89.2533 60.9392 89.0733 60.9125 88.7133C60.2792 78.4066 60.2925 68.0999 60.9525 57.7932C60.9792 57.4466 60.8158 57.2699 60.4625 57.2632C41.9225 57.2166 23.2858 57.2099 4.5525 57.2432C2.19917 57.2432 1.0225 58.4899 1.0225 60.9832C1.0025 69.5299 0.995833 78.1299 1.0025 86.7833C1.0025 87.1766 1.1625 87.4866 1.4825 87.7133C3.79583 89.4133 6.41917 89.9632 9.35251 89.3632C9.64584 89.3032 9.79249 89.1232 9.79249 88.8232L9.7325 65.8932C9.7325 65.4799 9.93917 65.2732 10.3525 65.2732Z" stroke="#F39324" stroke-width="2"/>
<path d="M126.492 69.1032C126.413 69.1028 126.334 69.0801 126.267 69.0377C126.199 68.9953 126.145 68.9349 126.109 68.8633C126.074 68.7917 126.059 68.7116 126.067 68.6321C126.075 68.5526 126.104 68.4769 126.152 68.4133L134.102 57.9832C134.142 57.9309 134.167 57.8685 134.174 57.803C134.181 57.7376 134.169 57.6718 134.141 57.6133C134.113 57.5548 134.069 57.5059 134.014 57.4723C133.96 57.4387 133.897 57.4217 133.832 57.4232L121.932 57.2932C121.466 57.2866 121.232 57.5166 121.232 57.9832C121.272 63.3432 118.452 65.8366 112.772 65.4633C110.306 65.2966 105.556 65.2733 98.5224 65.3933C92.2824 65.5033 86.6024 66.4633 87.0724 58.5233C87.0819 58.3642 87.0588 58.2049 87.0044 58.055C86.9501 57.905 86.8658 57.7675 86.7565 57.6507C86.6471 57.5339 86.5151 57.4402 86.3683 57.3753C86.2216 57.3105 86.0631 57.2758 85.9024 57.2733C79.9691 57.1866 74.2324 57.2099 68.6924 57.3433C66.1224 57.4133 64.9724 58.1933 64.7924 60.9033C64.2591 68.7633 64.1858 76.6266 64.5724 84.4933C64.9024 91.1533 72.4924 89.3133 76.4824 89.1933C76.8491 89.1799 77.1091 89.0066 77.2624 88.6733C82.2324 77.7432 101.532 77.6533 106.012 88.8433C106.107 89.0785 106.265 89.2826 106.469 89.4326C106.674 89.5826 106.916 89.6726 107.168 89.6924C107.421 89.7121 107.674 89.6609 107.899 89.5444C108.125 89.4279 108.313 89.2509 108.442 89.0333C111.522 83.8233 115.312 81.3033 121.622 80.8633C128.512 80.3933 134.812 81.3633 137.832 87.6233C137.942 87.8512 138.125 88.0355 138.352 88.1462C138.579 88.2569 138.837 88.2876 139.084 88.2331C139.331 88.1786 139.552 88.0423 139.711 87.8463C139.871 87.6502 139.959 87.406 139.962 87.1533L140.362 69.8033C140.376 69.3833 140.172 69.1732 139.752 69.1732L126.492 69.1032Z" stroke="#F39324" stroke-width="2"/>
<path d="M196.843 61.3532L197.513 59.6233C197.565 59.488 197.562 59.3374 197.504 59.2044C197.446 59.0714 197.337 58.9668 197.203 58.9133L196.773 58.7433C195.906 58.4074 195.024 58.2156 194.321 58.21C193.618 58.2043 193.151 58.3854 193.023 58.7133L192.913 58.9933C192.849 59.156 192.871 59.35 192.977 59.5643C193.082 59.7785 193.27 60.0088 193.529 60.2419C193.788 60.475 194.114 60.7063 194.487 60.9228C194.859 61.1392 195.273 61.3365 195.703 61.5033L196.133 61.6733C196.2 61.699 196.272 61.7111 196.344 61.7089C196.417 61.7067 196.488 61.6903 196.554 61.6606C196.62 61.6308 196.679 61.5884 196.729 61.5356C196.778 61.4829 196.817 61.4209 196.843 61.3532Z" stroke="#9C9F62" stroke-width="2"/>
<path d="M177.512 67.7933C182.959 69.3733 186.786 67.5933 188.992 62.4533C189.132 62.1267 189.026 61.9367 188.672 61.8833C183.882 61.2033 177.822 60.8433 176.782 66.6133C176.735 66.8656 176.784 67.1264 176.919 67.3447C177.054 67.563 177.266 67.7229 177.512 67.7933Z" stroke="#9C9F62" stroke-width="2"/>
<path d="M162.693 78.2033C163.006 78.4566 163.296 78.4299 163.563 78.1233C166.436 74.9099 169.659 72.1066 173.233 69.7133C173.307 69.6642 173.366 69.5945 173.401 69.5127C173.437 69.431 173.448 69.3406 173.433 69.2526C173.418 69.1647 173.378 69.083 173.318 69.0174C173.257 68.9518 173.179 68.9052 173.093 68.8833C168.579 67.7766 164.936 68.9399 162.163 72.3733C160.396 74.5533 160.573 76.4966 162.693 78.2033Z" stroke="#9C9F62" stroke-width="2"/>
<path d="M31.9291 70.4823C31.9338 70.0341 31.7602 69.6024 31.4466 69.2821C31.133 68.9619 30.7051 68.7794 30.2569 68.7747L30.1569 68.7737C29.7087 68.769 29.277 68.9425 28.9568 69.2561C28.6365 69.5697 28.454 69.9977 28.4493 70.4459L28.1359 100.364C28.1312 100.812 28.3047 101.244 28.6183 101.564C28.9319 101.885 29.3599 102.067 29.8081 102.072L29.9081 102.073C30.3563 102.078 30.788 101.904 31.1082 101.59C31.4285 101.277 31.611 100.849 31.6157 100.401L31.9291 70.4823Z" stroke="#F39324" stroke-width="2"/>
<path d="M25.0025 69.5633C25.0025 69.4811 24.9698 69.4022 24.9117 69.3441C24.8536 69.2859 24.7747 69.2533 24.6925 69.2533H14.3125C14.2303 69.2533 14.1514 69.2859 14.0933 69.3441C14.0352 69.4022 14.0025 69.4811 14.0025 69.5633V101.683C14.0025 101.766 14.0352 101.844 14.0933 101.902C14.1514 101.961 14.2303 101.993 14.3125 101.993H24.6925C24.7747 101.993 24.8536 101.961 24.9117 101.902C24.9698 101.844 25.0025 101.766 25.0025 101.683V69.5633Z" stroke="#F39324" stroke-width="2"/>
<path d="M196.958 72.5551C197.051 72.4135 197.094 72.241 197.084 72.0472C197.074 71.8535 197.012 71.6425 196.901 71.4261C196.79 71.2097 196.632 70.9923 196.436 70.7862C196.24 70.5802 196.011 70.3895 195.761 70.2252C195.255 69.8932 194.696 69.6884 194.206 69.6558C193.716 69.6233 193.335 69.7656 193.147 70.0515C193.054 70.1931 193.011 70.3657 193.021 70.5594C193.031 70.7532 193.093 70.9642 193.204 71.1806C193.315 71.397 193.473 71.6144 193.669 71.8204C193.865 72.0265 194.094 72.2172 194.344 72.3816C194.85 72.7135 195.409 72.9183 195.899 72.9509C196.389 72.9834 196.77 72.8411 196.958 72.5551Z" stroke="#9C9F62" stroke-width="2"/>
<path d="M185.169 73.5544C185.029 73.2304 184.653 73.0239 184.124 72.9803C183.595 72.9367 182.955 73.0595 182.346 73.3218C181.737 73.584 181.209 73.9643 180.877 74.3788C180.545 74.7933 180.437 75.2082 180.576 75.5322C180.716 75.8561 181.092 76.0626 181.621 76.1063C182.15 76.1499 182.79 76.0271 183.399 75.7648C184.008 75.5025 184.536 75.1223 184.868 74.7078C185.2 74.2932 185.308 73.8783 185.169 73.5544Z" stroke="#9C9F62" stroke-width="2"/>
<path d="M184.652 80.6433C189.666 83.6566 194.336 83.3067 198.662 79.5933C199.009 79.2933 199.026 78.9766 198.712 78.6433C194.332 73.9033 188.512 75.4233 184.512 79.5733C184.106 79.9933 184.152 80.35 184.652 80.6433Z" stroke="#9C9F62" stroke-width="2"/>
<path d="M176.473 76.5833C176.402 76.5259 176.32 76.485 176.232 76.4633C176.144 76.4416 176.051 76.4398 175.962 76.4579C175.872 76.476 175.787 76.5137 175.713 76.5682C175.639 76.6227 175.577 76.6927 175.533 76.7733C173.343 80.7933 171.973 86.8133 176.763 89.7033C177.109 89.9166 177.413 89.8666 177.673 89.5533C181.693 84.7866 181.293 80.4633 176.473 76.5833Z" stroke="#9C9F62" stroke-width="2"/>
<path d="M166.786 84.6366C167.236 84.9276 167.894 84.8554 168.617 84.4361C169.339 84.0167 170.067 83.2845 170.638 82.4005C171.21 81.5164 171.58 80.553 171.666 79.7221C171.753 78.8913 171.549 78.261 171.099 77.97C170.649 77.679 169.99 77.7511 169.268 78.1705C168.545 78.5898 167.818 79.322 167.246 80.2061C166.675 81.0901 166.305 82.0535 166.218 82.8844C166.132 83.7153 166.336 84.3456 166.786 84.6366Z" stroke="#9C9F62" stroke-width="2"/>
<path d="M205.797 84.3392C206.182 84.4571 206.625 84.3303 207.028 83.9868C207.431 83.6433 207.761 83.1113 207.946 82.5076C208.037 82.2088 208.09 81.9013 208.102 81.6028C208.113 81.3043 208.083 81.0207 208.012 80.7681C207.942 80.5155 207.833 80.2988 207.692 80.1305C207.55 79.9622 207.379 79.8456 207.188 79.7872C206.803 79.6694 206.36 79.7961 205.957 80.1396C205.553 80.4831 205.223 81.0152 205.039 81.6189C204.947 81.9177 204.895 82.2252 204.883 82.5237C204.872 82.8221 204.902 83.1058 204.973 83.3584C205.043 83.611 205.152 83.8277 205.293 83.996C205.435 84.1642 205.606 84.2809 205.797 84.3392Z" stroke="#9C9F62" stroke-width="2"/>
<path d="M154.432 81.6032C153.232 88.9132 152.712 97.1933 160.832 100.953C161.212 101.127 161.496 101.027 161.682 100.653C166.182 91.3333 163.582 86.1432 155.142 81.2632C155.075 81.2252 155 81.204 154.922 81.2013C154.845 81.1987 154.768 81.2147 154.699 81.2481C154.629 81.2815 154.568 81.3312 154.522 81.393C154.476 81.4549 154.445 81.527 154.432 81.6032Z" stroke="#9C9F62" stroke-width="2"/>
<path d="M200.462 82.7933C193.512 85.2233 186.672 90.1133 188.012 98.5233C188.059 98.83 188.236 98.9733 188.542 98.9533C192.292 98.7233 197.352 97.8133 199.262 94.1033C201.002 90.7233 201.722 87.16 201.422 83.4134C201.413 83.3032 201.379 83.1966 201.323 83.1018C201.266 83.007 201.188 82.9265 201.095 82.8665C201.003 82.8066 200.897 82.7688 200.787 82.7561C200.678 82.7434 200.566 82.7561 200.462 82.7933Z" stroke="#9C9F62" stroke-width="2"/>
<path d="M182.872 90.1033H185.192C185.365 90.1033 185.53 90.0349 185.652 89.913C185.774 89.7911 185.842 89.6257 185.842 89.4533V89.3834C185.842 88.0997 185.659 86.8686 185.333 85.9609C185.006 85.0533 184.564 84.5433 184.102 84.5433H183.962C183.501 84.5433 183.058 85.0533 182.732 85.9609C182.406 86.8686 182.222 88.0997 182.222 89.3834V89.4533C182.222 89.6257 182.291 89.7911 182.413 89.913C182.535 90.0349 182.7 90.1033 182.872 90.1033Z" stroke="#9C9F62" stroke-width="2"/>
<path d="M97.6324 93.5733C97.6324 91.2951 96.7274 89.1102 95.1165 87.4992C93.5055 85.8883 91.3207 84.9833 89.0424 84.9833C86.7642 84.9833 84.5793 85.8883 82.9684 87.4992C81.3574 89.1102 80.4525 91.2951 80.4525 93.5733C80.4525 94.7013 80.6746 95.8183 81.1063 96.8605C81.538 97.9027 82.1707 98.8497 82.9684 99.6473C83.766 100.445 84.713 101.078 85.7552 101.509C86.7974 101.941 87.9144 102.163 89.0424 102.163C90.1705 102.163 91.2875 101.941 92.3297 101.509C93.3719 101.078 94.3188 100.445 95.1165 99.6473C95.9141 98.8497 96.5469 97.9027 96.9786 96.8605C97.4103 95.8183 97.6324 94.7013 97.6324 93.5733Z" stroke="#F39324" stroke-width="2"/>
<path d="M129.563 93.5833C129.563 91.3051 128.658 89.1202 127.047 87.5092C125.436 85.8983 123.251 84.9933 120.973 84.9933C118.694 84.9933 116.509 85.8983 114.899 87.5092C113.288 89.1202 112.383 91.3051 112.383 93.5833C112.383 95.8615 113.288 98.0464 114.899 99.6573C116.509 101.268 118.694 102.173 120.973 102.173C123.251 102.173 125.436 101.268 127.047 99.6573C128.658 98.0464 129.563 95.8615 129.563 93.5833Z" stroke="#F39324" stroke-width="2"/>
<path d="M133.283 99.9433C136.003 96.6133 137.663 89.7433 132.403 87.4333C132.35 87.4093 132.291 87.4017 132.234 87.4112C132.178 87.4208 132.125 87.4471 132.083 87.4868C132.041 87.5266 132.012 87.5779 131.999 87.6343C131.987 87.6907 131.991 87.7495 132.013 87.8032C133.393 91.6499 133.569 95.5732 132.543 99.5732C132.514 99.6679 132.52 99.7695 132.56 99.8602C132.599 99.9509 132.669 100.025 132.757 100.069C132.846 100.113 132.947 100.125 133.043 100.102C133.139 100.079 133.224 100.023 133.283 99.9433Z" stroke="#F39324" stroke-width="2"/>
<path d="M206.872 92.2333C209.922 93.6933 211.382 91.2933 212.012 88.4733C212.119 87.9867 211.942 87.8433 211.482 88.0433L206.912 90.0333C206.7 90.126 206.519 90.2776 206.39 90.4704C206.261 90.6631 206.19 90.8888 206.186 91.1205C206.182 91.3522 206.244 91.5803 206.366 91.7776C206.488 91.9748 206.663 92.133 206.872 92.2333Z" stroke="#9C9F62" stroke-width="2"/>
<path d="M170.522 89.0133C170.425 88.9512 170.316 88.9091 170.202 88.8895C170.088 88.8699 169.971 88.8733 169.859 88.8994C169.746 88.9254 169.64 88.9737 169.546 89.0413C169.452 89.109 169.373 89.1946 169.312 89.2933C168.039 91.4533 167.912 93.7066 168.932 96.0533C169.079 96.3733 169.302 96.4467 169.602 96.2733C172.392 94.6633 173.322 90.8033 170.522 89.0133Z" stroke="#9C9F62" stroke-width="2"/>
<path d="M100.913 90.7633C101.659 93.0767 101.623 95.3867 100.803 97.6933C100.523 98.4667 100.683 98.5733 101.283 98.0133C103.436 95.9933 103.819 93.59 102.433 90.8033C102.139 90.21 101.779 89.95 101.353 90.0233C100.926 90.1033 100.779 90.35 100.913 90.7633Z" stroke="#F39324" stroke-width="2"/>
<path d="M183.872 99.7233C184.219 99.9433 184.456 99.86 184.582 99.4733C185.822 95.8 184.609 93.5 180.942 92.5733C180.874 92.5553 180.803 92.5533 180.734 92.5673C180.664 92.5813 180.599 92.611 180.542 92.6542C180.486 92.6974 180.439 92.7531 180.406 92.8169C180.373 92.8808 180.355 92.9514 180.352 93.0233C180.266 95.9366 181.439 98.17 183.872 99.7233Z" stroke="#9C9F62" stroke-width="2"/>
<path d="M203.492 100.983L215.332 102.033C215.639 102.06 215.749 101.923 215.662 101.623C214.052 96.1833 206.872 95.2033 202.722 98.1333C202.458 98.3185 202.258 98.5805 202.148 98.8838C202.038 99.1871 202.024 99.5168 202.108 99.8283C202.192 100.14 202.37 100.418 202.618 100.624C202.866 100.831 203.171 100.956 203.492 100.983Z" stroke="#9C9F62" stroke-width="2"/>
<path d="M168.682 105.673L181.292 103.263C181.746 103.177 181.809 102.97 181.482 102.643C177.956 99.0966 173.979 98.5332 169.552 100.953C167.646 101.993 167.059 103.403 167.792 105.183C167.959 105.59 168.256 105.753 168.682 105.673Z" stroke="#9C9F62" stroke-width="2"/>
<path d="M197.714 103.157C197.748 102.896 197.691 102.627 197.548 102.364C197.405 102.101 197.178 101.85 196.88 101.624C196.582 101.399 196.219 101.204 195.812 101.05C195.405 100.897 194.961 100.788 194.507 100.73C193.589 100.612 192.681 100.708 191.984 100.997C191.288 101.286 190.858 101.744 190.791 102.27C190.757 102.53 190.814 102.8 190.957 103.063C191.1 103.326 191.327 103.577 191.625 103.802C191.923 104.028 192.286 104.223 192.693 104.376C193.1 104.53 193.544 104.639 193.998 104.697C194.917 104.815 195.824 104.719 196.521 104.43C197.217 104.141 197.647 103.683 197.714 103.157Z" stroke="#9C9F62" stroke-width="2"/>
<path d="M159.063 104.446C159.114 103.966 158.799 103.467 158.187 103.06C157.576 102.652 156.718 102.369 155.803 102.273C154.887 102.177 153.99 102.276 153.307 102.547C152.624 102.818 152.212 103.241 152.161 103.721C152.111 104.201 152.426 104.699 153.038 105.107C153.649 105.514 154.507 105.797 155.422 105.893C156.338 105.989 157.235 105.891 157.918 105.62C158.601 105.348 159.013 104.926 159.063 104.446Z" stroke="#9C9F62" stroke-width="2"/>
<path d="M91.2425 93.0934L89.4725 91.3633C89.3901 91.2814 89.2922 91.2167 89.1846 91.1728C89.0769 91.129 88.9617 91.1069 88.8455 91.1078C88.7293 91.1087 88.6143 91.1327 88.5074 91.1783C88.4005 91.2239 88.3037 91.2902 88.2225 91.3733L88.0825 91.5233C87.4988 92.1189 87.0805 92.8292 86.9193 93.4984C86.7581 94.1676 86.8671 94.7412 87.2225 95.0934L87.5525 95.4233C87.7298 95.5978 87.9626 95.7121 88.2376 95.7598C88.5126 95.8075 88.8244 95.7875 89.1551 95.7011C89.4859 95.6147 89.829 95.4636 90.1649 95.2563C90.5008 95.0491 90.8228 94.7898 91.1125 94.4933L91.2525 94.3434C91.3344 94.2609 91.3992 94.163 91.443 94.0554C91.4869 93.9477 91.509 93.8325 91.5081 93.7163C91.5071 93.6001 91.4832 93.4851 91.4376 93.3782C91.392 93.2713 91.3257 93.1745 91.2425 93.0934Z" stroke="#F39324" stroke-width="2"/>
<path d="M119.423 91.8333C117.263 96.3633 121.542 96.7833 123.342 94.5333C123.602 94.2066 123.606 93.8833 123.353 93.5633L121.802 91.5733C121.655 91.3848 121.461 91.2372 121.24 91.1443C121.019 91.0514 120.778 91.0163 120.54 91.0423C120.302 91.0683 120.075 91.1546 119.879 91.293C119.683 91.4314 119.526 91.6173 119.423 91.8333Z" stroke="#F39324" stroke-width="2"/>
</svg>
